<svg version="1.1" id="Layer_1" xmlns="http://www.w3.org/2000/svg" xmlns:xlink="http://www.w3.org/1999/xlink" x="0px" y="0px"
	 width="100%" viewBox="0 0 601 559" enable-background="new 0 0 601 559" xml:space="preserve">
<path fill="black" opacity="0.000000" stroke="none" 
	d="
M351.000000,560.000000 
	C234.000000,560.000000 117.500000,560.000000 1.000000,560.000000 
	C1.000000,373.666656 1.000000,187.333328 1.000000,1.000000 
	C201.333328,1.000000 401.666656,1.000000 602.000000,1.000000 
	C602.000000,187.333328 602.000000,373.666656 602.000000,560.000000 
	C518.500000,560.000000 435.000000,560.000000 351.000000,560.000000 
M263.297821,476.844330 
	C262.510773,480.075867 261.813446,483.332489 260.917053,486.533417 
	C259.301758,492.301422 255.626419,495.088623 249.667603,495.155365 
	C245.501740,495.202026 241.329605,495.048706 237.171921,495.239166 
	C235.961548,495.294647 234.791321,496.226044 233.602692,496.755920 
	C233.716431,497.218903 233.830185,497.681885 233.943924,498.144867 
	C235.691345,498.374268 237.432571,498.726807 239.187103,498.815063 
	C281.451233,500.941223 323.729553,501.594879 366.019653,499.736511 
	C367.690460,499.663116 369.873291,498.566681 370.850555,497.236511 
	C396.524048,462.291840 419.991730,426.062866 436.328735,385.607330 
	C450.132385,351.425171 457.590729,316.304840 453.144073,279.302979 
	C446.422974,223.374878 414.269775,186.637894 364.562195,163.921478 
	C341.059631,153.180756 315.837006,149.949326 290.030151,150.475006 
	C264.680084,150.991333 241.121796,157.478500 219.129257,169.959305 
	C180.722473,191.755203 157.561249,225.414642 144.011276,266.528870 
	C140.306122,277.771271 137.962448,289.281006 137.577438,301.361847 
	C138.995209,301.607880 140.113785,301.795715 141.230011,301.996674 
	C158.079132,305.029633 175.222351,306.965332 191.701309,311.380341 
	C211.719940,316.743713 231.189453,324.164948 250.872223,330.768372 
	C256.684052,332.718201 259.163757,337.025208 259.015076,343.054871 
	C258.891876,348.051147 259.052032,353.057953 258.815369,358.047211 
	C258.377136,367.285919 257.740540,376.515228 257.161652,386.163696 
	C261.791748,386.163696 266.097229,386.053711 270.395264,386.185852 
	C280.370911,386.492554 284.904480,392.503937 282.458344,402.124786 
	C276.189056,426.782104 269.888489,451.431458 263.297821,476.844330 
M106.776253,186.302216 
	C88.637917,221.544724 81.402657,259.048737 83.059555,298.826416 
	C94.060318,298.826416 104.615265,298.826416 115.508240,298.826416 
	C116.938622,277.319458 122.862709,257.182434 131.624161,237.813568 
	C159.086700,177.102448 204.769333,139.421005 271.331390,129.897766 
	C313.277588,123.896408 353.520050,131.271118 390.812256,151.963013 
	C420.233917,168.287857 443.225220,191.480835 458.687134,221.242233 
	C480.769623,263.747040 482.046448,308.670410 470.399536,354.271362 
	C459.765594,395.906219 440.590698,433.751526 417.162201,469.549957 
	C411.007812,478.953796 404.689880,488.250610 398.206726,497.956360 
	C411.374695,496.891479 423.982513,495.980316 436.557281,494.735382 
	C438.393311,494.553589 440.632294,493.191589 441.740204,491.682251 
	C463.002991,462.716431 484.564545,433.954620 505.151154,404.512085 
	C525.681213,375.150513 535.886414,341.812500 540.030884,306.429321 
	C543.080750,280.391602 542.755188,254.524429 535.371887,229.228973 
	C518.247070,170.558853 480.928070,127.064499 430.791351,94.147797 
	C398.141998,72.712265 361.405396,62.782642 322.391327,61.519951 
	C295.123260,60.637421 268.156647,62.728958 242.020569,71.139481 
	C181.283936,90.684349 137.613312,130.441055 106.776253,186.302216 
M254.827591,421.369537 
	C255.852539,417.094879 256.877472,412.820251 257.902405,408.545593 
	C255.940842,408.479675 254.257126,409.048309 254.097687,409.901703 
	C252.321869,419.407562 250.781647,428.957458 249.107117,438.916260 
	C249.878098,438.397552 250.314743,438.268219 250.376892,438.037811 
	C251.803040,432.751007 253.188385,427.453156 254.827591,421.369537 
z"/>
<path class="helmet-bg" fill="blue" opacity="1.000000" stroke="none" 
	d="
M263.449127,476.464172 
	C269.888489,451.431458 276.189056,426.782104 282.458344,402.124786 
	C284.904480,392.503937 280.370911,386.492554 270.395264,386.185852 
	C266.097229,386.053711 261.791748,386.163696 257.161652,386.163696 
	C257.740540,376.515228 258.377136,367.285919 258.815369,358.047211 
	C259.052032,353.057953 258.891876,348.051147 259.015076,343.054871 
	C259.163757,337.025208 256.684052,332.718201 250.872223,330.768372 
	C231.189453,324.164948 211.719940,316.743713 191.701309,311.380341 
	C175.222351,306.965332 158.079132,305.029633 141.230011,301.996674 
	C140.113785,301.795715 138.995209,301.607880 137.577438,301.361847 
	C137.962448,289.281006 140.306122,277.771271 144.011276,266.528870 
	C157.561249,225.414642 180.722473,191.755203 219.129257,169.959305 
	C241.121796,157.478500 264.680084,150.991333 290.030151,150.475006 
	C315.837006,149.949326 341.059631,153.180756 364.562195,163.921478 
	C414.269775,186.637894 446.422974,223.374878 453.144073,279.302979 
	C457.590729,316.304840 450.132385,351.425171 436.328735,385.607330 
	C419.991730,426.062866 396.524048,462.291840 370.850555,497.236511 
	C369.873291,498.566681 367.690460,499.663116 366.019653,499.736511 
	C323.729553,501.594879 281.451233,500.941223 239.187103,498.815063 
	C237.432571,498.726807 235.691345,498.374268 233.943924,498.144867 
	C233.830185,497.681885 233.716431,497.218903 233.602692,496.755920 
	C234.791321,496.226044 235.961548,495.294647 237.171921,495.239166 
	C241.329605,495.048706 245.501740,495.202026 249.667603,495.155365 
	C255.626419,495.088623 259.301758,492.301422 260.917053,486.533417 
	C261.813446,483.332489 262.510773,480.075867 263.449127,476.464172 
z"/>
<path class="helmet-top" fill="gold" opacity="1.000000" stroke="none" 
	d="
M106.911392,185.954071 
	C137.613312,130.441055 181.283936,90.684349 242.020569,71.139481 
	C268.156647,62.728958 295.123260,60.637421 322.391327,61.519951 
	C361.405396,62.782642 398.141998,72.712265 430.791351,94.147797 
	C480.928070,127.064499 518.247070,170.558853 535.371887,229.228973 
	C542.755188,254.524429 543.080750,280.391602 540.030884,306.429321 
	C535.886414,341.812500 525.681213,375.150513 505.151154,404.512085 
	C484.564545,433.954620 463.002991,462.716431 441.740204,491.682251 
	C440.632294,493.191589 438.393311,494.553589 436.557281,494.735382 
	C423.982513,495.980316 411.374695,496.891479 398.206726,497.956360 
	C404.689880,488.250610 411.007812,478.953796 417.162201,469.549957 
	C440.590698,433.751526 459.765594,395.906219 470.399536,354.271362 
	C482.046448,308.670410 480.769623,263.747040 458.687134,221.242233 
	C443.225220,191.480835 420.233917,168.287857 390.812256,151.963013 
	C353.520050,131.271118 313.277588,123.896408 271.331390,129.897766 
	C204.769333,139.421005 159.086700,177.102448 131.624161,237.813568 
	C122.862709,257.182434 116.938622,277.319458 115.508240,298.826416 
	C104.615265,298.826416 94.060318,298.826416 83.059555,298.826416 
	C81.402657,259.048737 88.637917,221.544724 106.911392,185.954071 
z"/>
<path fill="blue" opacity="1.000000" stroke="none" 
	d="
M254.704468,421.763458 
	C253.188385,427.453156 251.803040,432.751007 250.376892,438.037811 
	C250.314743,438.268219 249.878098,438.397552 249.107117,438.916260 
	C250.781647,428.957458 252.321869,419.407562 254.097687,409.901703 
	C254.257126,409.048309 255.940842,408.479675 257.902405,408.545593 
	C256.877472,412.820251 255.852539,417.094879 254.704468,421.763458 
z"/>
</svg>