<?xml version="1.0" encoding="UTF-8" standalone="no"?>
<!DOCTYPE svg PUBLIC "-//W3C//DTD SVG 1.1//EN" "http://www.w3.org/Graphics/SVG/1.1/DTD/svg11.dtd">
<!-- Created with Vectornator (http://vectornator.io/) -->
<svg height="100%" stroke-miterlimit="10" style="fill-rule:nonzero;clip-rule:evenodd;stroke-linecap:round;stroke-linejoin:round;" version="1.1" viewBox="0 0 551.574 621.056" width="100%" xml:space="preserve" xmlns="http://www.w3.org/2000/svg" xmlns:vectornator="http://vectornator.io" xmlns:xlink="http://www.w3.org/1999/xlink">
    <defs/>
    <g id="card-helmet" vectornator:layerName="Layer 1">
        <g opacity="1">
            <path class="mini-helmet-bg" d="M6.83147 87.7777C6.83147 65.9984 24.7401 48.3427 46.8315 48.3427C68.9229 48.3427 86.8315 65.9983 86.8315 87.7777C86.8315 109.557 68.9229 127.213 46.8315 127.213C24.7401 127.213 6.83148 109.557 6.83147 87.7777Z" fill="#3e68ff" fill-rule="nonzero" opacity="1" stroke="#000000" stroke-linecap="round" stroke-linejoin="round" stroke-width="4"/>
            <path class="mini-helmet-line" d="M46.9502 47.21L46.7055 127.163" fill="none" opacity="1" stroke="#fddf19" stroke-linecap="butt" stroke-linejoin="round" stroke-width="4"/>
            <path class="mini-helmet-outline" d="M6.83147 87.7777C6.83147 65.9984 24.7401 48.3427 46.8315 48.3427C68.9229 48.3427 86.8315 65.9983 86.8315 87.7777C86.8315 109.557 68.9229 127.213 46.8315 127.213C24.7401 127.213 6.83148 109.557 6.83147 87.7777Z" fill="#3e68ff" fill-opacity="0" fill-rule="nonzero" opacity="1" stroke="#000000" stroke-linecap="round" stroke-linejoin="round" stroke-width="4"/>
        </g>
        <g opacity="1">
            <path class="mini-helmet-bg" d="M96.8315 47.7777C96.8315 25.9984 114.74 8.34273 136.831 8.34272C158.923 8.34272 176.831 25.9984 176.831 47.7777C176.831 69.5571 158.923 87.2127 136.831 87.2127C114.74 87.2127 96.8315 69.5571 96.8315 47.7777Z" fill="#3e68ff" fill-rule="nonzero" opacity="1" stroke="#000000" stroke-linecap="round" stroke-linejoin="round" stroke-width="4"/>
            <path class="mini-helmet-line" d="M136.95 7.20998L136.705 87.1628" fill="none" opacity="1" stroke="#fddf19" stroke-linecap="butt" stroke-linejoin="round" stroke-width="4"/>
            <path class="mini-helmet-outline" d="M96.8315 47.7777C96.8315 25.9984 114.74 8.34273 136.831 8.34272C158.923 8.34272 176.831 25.9984 176.831 47.7777C176.831 69.5571 158.923 87.2127 136.831 87.2127C114.74 87.2127 96.8315 69.5571 96.8315 47.7777Z" fill="#3e68ff" fill-opacity="0" fill-rule="nonzero" opacity="1" stroke="#000000" stroke-linecap="round" stroke-linejoin="round" stroke-width="4"/>
        </g>
        <g opacity="1">
            <path class="mini-helmet-bg" d="M186.831 47.7777C186.831 25.9984 204.74 8.34272 226.831 8.34271C248.923 8.34271 266.831 25.9984 266.831 47.7777C266.831 69.5571 248.923 87.2127 226.831 87.2127C204.74 87.2127 186.831 69.5571 186.831 47.7777Z" fill="#3e68ff" fill-rule="nonzero" opacity="1" stroke="#000000" stroke-linecap="round" stroke-linejoin="round" stroke-width="4"/>
            <path class="mini-helmet-line" d="M226.95 7.20997L226.705 87.1628" fill="none" opacity="1" stroke="#fddf19" stroke-linecap="butt" stroke-linejoin="round" stroke-width="4"/>
            <path class="mini-helmet-outline" d="M186.831 47.7777C186.831 25.9984 204.74 8.34272 226.831 8.34271C248.923 8.34271 266.831 25.9984 266.831 47.7777C266.831 69.5571 248.923 87.2127 226.831 87.2127C204.74 87.2127 186.831 69.5571 186.831 47.7777Z" fill="#3e68ff" fill-opacity="0" fill-rule="nonzero" opacity="1" stroke="#000000" stroke-linecap="round" stroke-linejoin="round" stroke-width="4"/>
        </g>
        <g opacity="1">
            <path class="mini-helmet-bg" d="M276.831 47.7777C276.831 25.9984 294.74 8.34271 316.831 8.3427C338.923 8.3427 356.831 25.9983 356.831 47.7777C356.831 69.557 338.923 87.2127 316.831 87.2127C294.74 87.2127 276.831 69.5571 276.831 47.7777Z" fill="#3e68ff" fill-rule="nonzero" opacity="1" stroke="#000000" stroke-linecap="round" stroke-linejoin="round" stroke-width="4"/>
            <path class="mini-helmet-line" d="M316.95 7.20996L316.705 87.1628" fill="none" opacity="1" stroke="#fddf19" stroke-linecap="butt" stroke-linejoin="round" stroke-width="4"/>
            <path class="mini-helmet-outline" d="M276.831 47.7777C276.831 25.9984 294.74 8.34271 316.831 8.3427C338.923 8.3427 356.831 25.9983 356.831 47.7777C356.831 69.557 338.923 87.2127 316.831 87.2127C294.74 87.2127 276.831 69.5571 276.831 47.7777Z" fill="#3e68ff" fill-opacity="0" fill-rule="nonzero" opacity="1" stroke="#000000" stroke-linecap="round" stroke-linejoin="round" stroke-width="4"/>
        </g>
        <g opacity="1">
            <path class="mini-helmet-bg" d="M366.831 47.7777C366.831 25.9984 384.74 8.34274 406.831 8.34273C428.923 8.34272 446.831 25.9984 446.831 47.7777C446.831 69.5571 428.923 87.2127 406.831 87.2127C384.74 87.2127 366.831 69.5571 366.831 47.7777Z" fill="#3e68ff" fill-rule="nonzero" opacity="1" stroke="#000000" stroke-linecap="round" stroke-linejoin="round" stroke-width="4"/>
            <path class="mini-helmet-line" d="M406.95 7.20999L406.705 87.1628" fill="none" opacity="1" stroke="#fddf19" stroke-linecap="butt" stroke-linejoin="round" stroke-width="4"/>
            <path class="mini-helmet-outline" d="M366.831 47.7777C366.831 25.9984 384.74 8.34274 406.831 8.34273C428.923 8.34272 446.831 25.9984 446.831 47.7777C446.831 69.5571 428.923 87.2127 406.831 87.2127C384.74 87.2127 366.831 69.5571 366.831 47.7777Z" fill="#3e68ff" fill-opacity="0" fill-rule="nonzero" opacity="1" stroke="#000000" stroke-linecap="round" stroke-linejoin="round" stroke-width="4"/>
        </g>
        <g opacity="1">
            <path class="mini-helmet-bg" d="M456.831 47.7777C456.831 25.9984 474.74 8.34273 496.831 8.34272C518.923 8.34272 536.831 25.9984 536.831 47.7777C536.831 69.5571 518.923 87.2127 496.831 87.2127C474.74 87.2127 456.831 69.5571 456.831 47.7777Z" fill="#3e68ff" fill-rule="nonzero" opacity="1" stroke="#000000" stroke-linecap="round" stroke-linejoin="round" stroke-width="4"/>
            <path class="mini-helmet-line" d="M496.95 7.20998L496.705 87.1628" fill="none" opacity="1" stroke="#fddf19" stroke-linecap="butt" stroke-linejoin="round" stroke-width="4"/>
            <path class="mini-helmet-outline" d="M456.831 47.7777C456.831 25.9984 474.74 8.34273 496.831 8.34272C518.923 8.34272 536.831 25.9984 536.831 47.7777C536.831 69.5571 518.923 87.2127 496.831 87.2127C474.74 87.2127 456.831 69.5571 456.831 47.7777Z" fill="#3e68ff" fill-opacity="0" fill-rule="nonzero" opacity="1" stroke="#000000" stroke-linecap="round" stroke-linejoin="round" stroke-width="4"/>
        </g>
        <g opacity="1">
            <path class="mini-helmet-bg" d="M276.831 137.778C276.831 115.998 294.74 98.3427 316.831 98.3427C338.923 98.3427 356.831 115.998 356.831 137.778C356.831 159.557 338.923 177.213 316.831 177.213C294.74 177.213 276.831 159.557 276.831 137.778Z" fill="#3e68ff" fill-rule="nonzero" opacity="1" stroke="#000000" stroke-linecap="round" stroke-linejoin="round" stroke-width="4"/>
            <path class="mini-helmet-line" d="M316.95 97.21L316.705 177.163" fill="none" opacity="1" stroke="#fddf19" stroke-linecap="butt" stroke-linejoin="round" stroke-width="4"/>
            <path class="mini-helmet-outline" d="M276.831 137.778C276.831 115.998 294.74 98.3427 316.831 98.3427C338.923 98.3427 356.831 115.998 356.831 137.778C356.831 159.557 338.923 177.213 316.831 177.213C294.74 177.213 276.831 159.557 276.831 137.778Z" fill="#3e68ff" fill-opacity="0" fill-rule="nonzero" opacity="1" stroke="#000000" stroke-linecap="round" stroke-linejoin="round" stroke-width="4"/>
        </g>
        <g opacity="1">
            <path class="mini-helmet-bg" d="M276.831 227.778C276.831 205.998 294.74 188.343 316.831 188.343C338.923 188.343 356.831 205.998 356.831 227.778C356.831 249.557 338.923 267.213 316.831 267.213C294.74 267.213 276.831 249.557 276.831 227.778Z" fill="#3e68ff" fill-rule="nonzero" opacity="1" stroke="#000000" stroke-linecap="round" stroke-linejoin="round" stroke-width="4"/>
            <path class="mini-helmet-line" d="M316.95 187.21L316.705 267.163" fill="none" opacity="1" stroke="#fddf19" stroke-linecap="butt" stroke-linejoin="round" stroke-width="4"/>
            <path class="mini-helmet-outline" d="M276.831 227.778C276.831 205.998 294.74 188.343 316.831 188.343C338.923 188.343 356.831 205.998 356.831 227.778C356.831 249.557 338.923 267.213 316.831 267.213C294.74 267.213 276.831 249.557 276.831 227.778Z" fill="#3e68ff" fill-opacity="0" fill-rule="nonzero" opacity="1" stroke="#000000" stroke-linecap="round" stroke-linejoin="round" stroke-width="4"/>
        </g>
    </g>
</svg>
