<svg class="top-helmet" version="1.1" xmlns="http://www.w3.org/2000/svg" xmlns:xlink="http://www.w3.org/1999/xlink" x="0px" y="0px"
	 width="100%" viewBox="0 0 559 680" enable-background="new 0 0 559 680" xml:space="preserve">
	<path fill="#000000" opacity="0.000000" stroke="none" 
		d="
	M292.000000,681.000000 
		C194.666687,681.000000 97.833366,681.000000 1.000039,681.000000 
		C1.000026,454.333405 1.000026,227.666779 1.000013,1.000130 
		C187.333252,1.000087 373.666504,1.000087 559.999817,1.000043 
		C559.999878,227.666550 559.999878,454.333099 559.999939,680.999817 
		C470.833344,681.000000 381.666656,681.000000 292.000000,681.000000 
	M211.913757,601.677246 
		C212.001007,601.395874 212.088257,601.114441 212.375381,599.957458 
		C210.931885,586.216797 209.013077,572.506409 208.133011,558.729797 
		C205.363983,515.383606 201.936798,472.041260 200.748413,428.643066 
		C199.545456,384.712677 200.071503,340.704132 201.000183,296.754333 
		C202.062256,246.491516 204.820999,196.284424 210.851151,146.318207 
		C211.532516,140.672287 211.918945,134.990768 212.571762,127.922401 
		C202.551514,132.867584 193.494934,136.682281 185.081940,141.598373 
		C139.869690,168.017944 107.640831,206.312988 85.993889,253.424789 
		C62.241207,305.119415 58.343273,359.619293 67.363380,415.134003 
		C77.622704,478.275513 108.928749,529.605469 157.893326,570.283447 
		C173.963913,583.634277 191.724030,594.426331 211.913757,601.677246 
	M263.954407,117.209435 
		C255.896561,118.393456 247.858017,119.744141 239.771561,120.681305 
		C236.432053,121.068336 235.348190,122.518616 235.057251,125.689491 
		C232.837357,149.882278 229.687698,174.018051 228.331940,198.255737 
		C225.749222,244.428131 223.330917,290.640137 222.429520,336.866608 
		C221.696503,374.457581 223.022079,412.099701 223.896866,449.708374 
		C225.104813,501.640472 229.478973,553.363098 235.049026,604.993835 
		C235.370514,607.973877 236.481369,609.256287 239.363831,609.865051 
		C258.066010,613.815674 276.984924,614.834167 295.990845,613.742188 
		C304.918793,613.229187 313.786896,611.673828 322.615479,610.598938 
		C322.854004,609.378723 323.039612,608.743713 323.095642,608.097473 
		C326.128357,573.131470 329.632660,538.198059 332.067474,503.190247 
		C336.435913,440.381104 337.160522,377.487640 335.214142,314.547852 
		C333.248718,250.992859 329.135742,187.588608 323.091339,124.298256 
		C322.820099,121.458107 322.020996,120.433250 319.132812,119.859810 
		C301.165649,116.292465 283.045013,116.501122 263.954407,117.209435 
	M432.352081,545.845764 
		C454.308777,521.922302 471.546936,494.970795 483.165710,464.653320 
		C499.371674,422.366211 503.980988,378.529266 499.301910,333.612976 
		C495.425781,296.404419 485.328278,261.119904 465.727173,229.025406 
		C443.347687,192.381683 415.240326,161.230087 377.009735,140.479980 
		C367.237335,135.175858 356.737671,131.211655 345.473663,126.136971 
		C361.029449,286.039612 364.150391,444.351715 345.875366,603.721558 
		C380.522736,592.354004 407.782623,571.753906 432.352081,545.845764 
	z"/>
	<path fill="#FFFFFF" opacity="1.000000" stroke="none" 
		d="
	M264.420959,117.187149 
		C283.045013,116.501122 301.165649,116.292465 319.132812,119.859810 
		C322.020996,120.433250 322.820099,121.458107 323.091339,124.298256 
		C329.135742,187.588608 333.248718,250.992859 335.214142,314.547852 
		C337.160522,377.487640 336.435913,440.381104 332.067474,503.190247 
		C329.632660,538.198059 326.128357,573.131470 323.095642,608.097473 
		C323.039612,608.743713 322.854004,609.378723 322.615479,610.598938 
		C313.786896,611.673828 304.918793,613.229187 295.990845,613.742188 
		C276.984924,614.834167 258.066010,613.815674 239.363831,609.865051 
		C236.481369,609.256287 235.370514,607.973877 235.049026,604.993835 
		C229.478973,553.363098 225.104813,501.640472 223.896866,449.708374 
		C223.022079,412.099701 221.696503,374.457581 222.429520,336.866608 
		C223.330917,290.640137 225.749222,244.428131 228.331940,198.255737 
		C229.687698,174.018051 232.837357,149.882278 235.057251,125.689491 
		C235.348190,122.518616 236.432053,121.068336 239.771561,120.681305 
		C247.858017,119.744141 255.896561,118.393456 264.420959,117.187149 
	z"/>
	<path fill="#3399FF" opacity="1.000000" stroke="none" 
		d="
	M432.134308,546.127197 
		C407.782623,571.753906 380.522736,592.354004 345.875366,603.721558 
		C364.150391,444.351715 361.029449,286.039612 345.473663,126.136971 
		C356.737671,131.211655 367.237335,135.175858 377.009735,140.479980 
		C415.240326,161.230087 443.347687,192.381683 465.727173,229.025406 
		C485.328278,261.119904 495.425781,296.404419 499.301910,333.612976 
		C503.980988,378.529266 499.371674,422.366211 483.165710,464.653320 
		C471.546936,494.970795 454.308777,521.922302 432.134308,546.127197 
	z"/>
	<path fill="#3399FF" opacity="1.000000" stroke="none" 
		d="
	M211.586060,601.413757 
		C191.724030,594.426331 173.963913,583.634277 157.893326,570.283447 
		C108.928749,529.605469 77.622704,478.275513 67.363380,415.134003 
		C58.343273,359.619293 62.241207,305.119415 85.993889,253.424789 
		C107.640831,206.312988 139.869690,168.017944 185.081940,141.598373 
		C193.494934,136.682281 202.551514,132.867584 212.571762,127.922401 
		C211.918945,134.990768 211.532516,140.672287 210.851151,146.318207 
		C204.820999,196.284424 202.062256,246.491516 201.000183,296.754333 
		C200.071503,340.704132 199.545456,384.712677 200.748413,428.643066 
		C201.936798,472.041260 205.363983,515.383606 208.133011,558.729797 
		C209.013077,572.506409 210.931885,586.216797 212.126831,600.539185 
		C211.878281,601.120850 211.586060,601.413757 211.586060,601.413757 
	z"/>
	<path fill="#3399FF" opacity="1.000000" stroke="none" 
		d="
	M212.026886,600.976929 
		C212.088257,601.114441 212.001007,601.395874 211.749908,601.545532 
		C211.586060,601.413757 211.878281,601.120850 212.026886,600.976929 
	z"/>
</svg>