<svg version="1.1" xmlns="http://www.w3.org/2000/svg" xmlns:xlink="http://www.w3.org/1999/xlink" x="0px" y="0px"
	 width="100%" viewBox="0 0 1920 1080" enable-background="new 0 0 1920 1080" xml:space="preserve">
	<path fill="#000000" opacity="0.000000" stroke="none" 
		d="
	M1140.000000,1081.000000 
		C760.000061,1081.000000 380.500122,1081.000000 1.000153,1081.000000 
		C1.000102,721.000122 1.000102,361.000275 1.000051,1.000298 
		C640.999756,1.000198 1280.999512,1.000198 1920.999512,1.000099 
		C1920.999634,360.999664 1920.999634,720.999329 1920.999756,1080.999512 
		C1660.833374,1081.000000 1400.666626,1081.000000 1140.000000,1081.000000 
	M594.664368,778.407532 
		C597.072693,757.662781 593.777832,737.711182 586.195496,718.386414 
		C585.705688,717.138062 584.628845,715.649536 583.468079,715.204895 
		C563.210449,707.446777 542.385925,703.191650 519.820312,705.336731 
		C513.557190,706.607056 507.294037,707.877319 500.281525,709.160522 
		C475.639099,717.063110 454.340485,730.153442 437.581482,750.072815 
		C425.793304,764.083801 416.210327,779.366089 411.536926,798.207703 
		C410.751312,803.410950 409.965698,808.614136 409.034363,814.768250 
		C407.826874,832.329224 411.470551,848.998169 417.495056,865.424988 
		C420.576996,873.828369 425.007721,879.859314 434.029327,882.080627 
		C438.516266,883.185303 442.751495,885.290100 447.222992,886.483887 
		C459.615967,889.792664 472.144135,892.074768 485.911072,890.107849 
		C491.245819,889.060608 496.580536,888.013367 502.703979,887.009155 
		C507.079376,885.492310 511.612610,884.320740 515.805542,882.404663 
		C553.196716,865.317139 577.884155,836.882263 590.932922,797.206238 
		C592.010193,791.155212 593.087463,785.104126 594.664368,778.407532 
	M1057.795288,244.312149 
		C1052.280273,269.908081 1053.903931,295.274200 1060.705688,320.357208 
		C1063.373535,330.195007 1066.904907,339.798584 1070.198120,349.988495 
		C1079.759521,345.588074 1088.340820,341.637848 1096.922974,337.689240 
		C1104.319458,334.286133 1107.287842,335.306152 1110.950806,342.376923 
		C1114.525391,349.277161 1118.170654,356.140747 1122.054321,363.533142 
		C1126.279175,359.717194 1130.100464,356.325684 1133.853516,352.860443 
		C1138.232300,348.817413 1143.043579,348.370392 1146.078247,351.810852 
		C1149.266479,355.425140 1148.623535,359.936279 1144.213989,364.017029 
		C1139.343628,368.524261 1134.398315,372.950562 1129.339722,377.544739 
		C1132.093506,382.799561 1134.725586,387.822235 1137.621338,393.347839 
		C1139.610352,389.259766 1141.172729,385.781982 1142.957886,382.422607 
		C1155.607178,358.619354 1172.567139,338.788971 1198.974365,330.591705 
		C1209.737183,327.250763 1214.931030,321.344269 1218.111694,311.849823 
		C1219.534790,307.602173 1221.072632,303.366058 1222.059082,299.011566 
		C1222.484863,297.131653 1222.251709,294.604126 1221.287476,292.984009 
		C1210.240234,274.420654 1199.784546,255.435043 1187.607544,237.631454 
		C1171.231323,213.688217 1151.643799,192.473969 1125.681641,178.500031 
		C1109.231934,169.646057 1113.638428,168.714584 1097.274780,180.495346 
		C1075.755981,195.987579 1064.322510,218.288177 1057.795288,244.312149 
	M974.176270,210.671799 
		C960.223022,223.314484 948.731689,237.786011 940.970581,255.072266 
		C928.481750,282.888672 929.288086,311.333710 937.351440,339.936859 
		C943.184753,360.629852 952.337158,379.927979 963.689575,398.558624 
		C994.824341,384.380493 1025.686401,370.326599 1056.726440,356.191620 
		C1048.582764,335.763733 1042.430176,315.460144 1040.480225,294.117798 
		C1037.960693,266.542267 1040.591553,239.649628 1052.158569,214.133560 
		C1060.823975,195.018204 1073.352905,178.919510 1091.430054,166.000046 
		C1073.530273,163.806519 1056.984131,164.796463 1040.887451,170.322708 
		C1015.996033,178.868317 994.576660,193.276077 974.176270,210.671799 
	M1282.889526,465.384125 
		C1294.329224,452.692230 1302.067749,438.244690 1303.173584,420.909637 
		C1305.155151,389.848450 1293.244507,365.412231 1266.169067,349.951233 
		C1238.934326,334.399170 1210.981812,336.059021 1185.936768,354.353271 
		C1154.884888,377.035400 1142.244629,409.366669 1145.328003,447.294189 
		C1147.782715,477.489044 1173.827637,500.294617 1204.142334,500.122498 
		C1235.069580,499.946869 1260.591675,487.081848 1282.889526,465.384125 
	M1111.933350,553.431824 
		C1126.716309,535.011292 1141.499146,516.590759 1156.586304,497.791168 
		C1134.244141,479.210083 1128.228882,455.018066 1130.059082,428.002319 
		C1116.937012,435.918060 1104.636475,443.790863 1091.916016,450.913696 
		C1068.349609,464.109528 1043.208374,473.752869 1017.767029,482.631531 
		C1015.376221,483.465912 1013.427124,484.125336 1012.984497,487.408569 
		C1010.095459,508.834412 1007.031433,530.238708 1003.735962,551.605591 
		C1003.218933,554.957825 1003.931335,556.696960 1006.700806,558.474976 
		C1026.291748,571.052673 1045.814941,583.736633 1065.282593,596.504150 
		C1067.790894,598.149109 1069.345093,598.304932 1071.570190,595.931458 
		C1084.770630,581.850403 1098.141479,567.929016 1111.933350,553.431824 
	M936.506592,608.990967 
		C957.422852,619.830078 978.717285,630.017151 999.072388,641.823669 
		C1007.412781,646.661316 1012.651794,646.389954 1019.628906,640.285339 
		C1031.704346,629.720093 1044.518188,619.998840 1057.187988,609.790100 
		C1037.754395,597.133789 1019.041504,584.946838 1000.079163,572.597473 
		C999.090149,577.432922 998.131409,581.978271 997.234375,586.535828 
		C995.479919,595.449280 991.091919,597.182007 983.180115,592.692932 
		C962.688660,581.066589 942.277649,569.266663 921.415161,558.336426 
		C905.534607,550.016357 888.829346,543.203491 870.934570,540.626892 
		C863.327576,539.531555 854.944519,538.855957 847.759521,540.925110 
		C835.942810,544.328247 832.648926,555.025269 832.049683,566.243469 
		C830.854370,588.620789 837.490479,609.589111 844.200867,630.504089 
		C844.508545,631.462891 845.408264,632.723694 846.259583,632.937317 
		C852.292725,634.450867 858.385315,635.727539 863.368713,636.837097 
		C865.287781,625.070984 867.053772,613.800049 868.993896,602.559143 
		C869.801758,597.879211 873.130066,595.201904 877.549438,594.707520 
		C882.457581,594.158508 887.556091,593.863525 892.411987,594.564758 
		C907.648560,596.764954 921.829895,602.468445 936.506592,608.990967 
	M1050.782349,783.052063 
		C1044.255859,806.340271 1037.729370,829.628418 1030.999756,853.640991 
		C1034.351929,855.858948 1038.690674,858.729797 1044.162720,862.350403 
		C1079.317627,794.335022 1114.106812,727.027161 1148.972412,659.571350 
		C1132.044189,650.840637 1116.290405,642.715698 1100.697876,634.673889 
		C1083.113892,648.494324 1065.521973,662.321167 1048.564697,675.649170 
		C1050.782959,686.213196 1053.439575,696.187622 1054.897827,706.334290 
		C1058.563110,731.838806 1055.912720,757.110107 1050.782349,783.052063 
	M1140.189575,576.684448 
		C1159.420898,557.015320 1178.044678,536.807190 1195.635010,515.222107 
		C1190.418945,513.816711 1185.876709,512.826294 1181.499268,511.347656 
		C1177.133911,509.873077 1172.933838,507.908905 1168.386230,506.046722 
		C1125.019775,567.214355 1074.014771,620.909302 1012.185120,664.107971 
		C1015.467407,668.376282 1018.356079,672.132690 1021.321777,675.989258 
		C1064.444458,646.801086 1103.716553,613.973633 1140.189575,576.684448 
	M1069.927368,400.422272 
		C1083.445801,391.741974 1096.964233,383.061676 1110.557739,374.333191 
		C1106.380859,366.443970 1102.840942,359.757751 1099.245361,352.966675 
		C1057.033691,372.233856 1015.344971,391.262268 972.992310,410.593750 
		C974.643921,412.586456 975.724426,413.992126 976.910095,415.302673 
		C981.599976,420.486633 986.610718,425.414185 990.923096,430.892822 
		C993.420593,434.065857 995.662781,434.120300 998.986328,432.859314 
		C1023.124084,423.701294 1046.802124,413.552643 1069.927368,400.422272 
	M1151.558472,643.945312 
		C1154.389160,646.005310 1155.371826,644.324829 1156.521729,641.848022 
		C1172.324219,607.810608 1188.226685,573.819519 1204.073975,539.802795 
		C1207.484375,532.482239 1210.773682,525.105225 1214.118652,517.754211 
		C1182.586914,555.170898 1149.330078,590.725708 1112.597046,623.735779 
		C1125.837646,630.610168 1138.359619,637.111511 1151.558472,643.945312 
	M869.731445,430.322998 
		C870.223206,429.208405 871.124695,428.098511 871.137634,426.978363 
		C871.202576,421.337311 870.590637,415.657562 871.043335,410.058258 
		C871.979187,398.481964 878.264587,391.077637 889.374634,387.802795 
		C903.423218,383.661774 917.024536,386.735474 930.528015,390.648010 
		C934.843445,391.898376 939.081909,393.414459 943.285217,394.786011 
		C938.631653,384.459106 934.187317,374.453064 929.560791,364.532043 
		C929.049133,363.434967 927.598206,362.297668 926.410767,362.067535 
		C913.448730,359.555786 900.372375,358.543121 887.212585,360.096527 
		C867.498657,362.423615 857.709717,371.558868 855.914673,391.314545 
		C855.087280,400.420593 856.747925,409.804749 857.783020,419.006226 
		C858.306885,423.663116 859.948608,428.194244 861.088074,432.794769 
		C864.213135,431.945496 866.616638,431.292328 869.731445,430.322998 
	M1001.016052,688.439819 
		C1003.399536,687.011047 1005.783020,685.582214 1008.475525,683.968140 
		C1005.383789,679.945312 1002.599731,676.322937 999.745056,672.608582 
		C996.438293,674.675171 993.612000,676.753479 990.510254,678.267395 
		C988.539551,679.229248 986.145813,679.822571 983.965698,679.759338 
		C978.499207,679.600647 973.034790,678.506958 967.590454,678.640686 
		C958.498962,678.864014 949.368835,679.335876 940.363770,680.526367 
		C935.445068,681.176697 934.384888,684.044373 937.459778,687.968262 
		C942.541870,694.453491 947.784302,701.010681 953.954834,706.396851 
		C962.234924,713.624329 972.652649,713.580139 981.436218,706.865051 
		C986.125488,703.280090 989.916748,698.530579 994.185974,694.381409 
		C996.174622,692.448730 998.335938,690.693665 1001.016052,688.439819 
	M1105.235840,425.749115 
		C1112.100830,421.062988 1119.020264,416.452606 1125.775024,411.612701 
		C1126.842529,410.847839 1128.080444,408.615265 1127.691772,407.792175 
		C1124.462280,400.952759 1120.869141,394.285034 1117.329224,387.456390 
		C1107.697388,393.838989 1098.834595,399.978973 1089.702637,405.688629 
		C1080.500244,411.442444 1071.030640,416.768860 1061.326538,422.489807 
		C1066.145020,427.859772 1070.852539,432.580688 1074.902710,437.810547 
		C1077.462646,441.116211 1079.502563,441.013428 1082.701416,439.027161 
		C1089.901611,434.556244 1097.286255,430.382477 1105.235840,425.749115 
	M1061.144897,449.825562 
		C1062.040405,449.215607 1062.935913,448.605652 1064.066650,447.835571 
		C1059.119751,442.351837 1054.216675,437.349609 1049.862915,431.907776 
		C1047.684937,429.185394 1045.950195,429.347992 1043.158691,430.547302 
		C1032.468018,435.139984 1021.693298,439.539062 1010.917358,443.930298 
		C1005.910278,445.970673 1000.828430,447.827515 995.176636,449.999573 
		C1000.069702,455.422913 1004.516968,460.118835 1008.678589,465.055542 
		C1011.033691,467.849213 1013.283813,468.688721 1016.869263,467.236725 
		C1031.344971,461.374451 1045.925659,455.771454 1061.144897,449.825562 
	M877.852783,487.298035 
		C883.344971,485.577698 889.028809,484.294830 894.269104,481.999390 
		C898.506531,480.143188 899.786255,476.207428 897.195740,472.008026 
		C894.857117,468.216827 892.376404,464.423431 889.401428,461.134888 
		C884.476318,455.690552 879.103821,450.651001 873.453125,444.971832 
		C871.556824,445.532745 868.752075,446.362427 865.161560,447.424561 
		C870.515320,455.315643 868.550232,462.881927 865.501648,470.434937 
		C865.195435,471.193634 865.104370,472.042175 864.938660,472.854156 
		C862.361023,485.488708 864.211060,487.723877 877.852783,487.298035 
	M812.872864,660.608093 
		C829.479187,671.604309 847.837463,675.942810 867.774048,675.505615 
		C867.093140,668.232056 866.524048,661.463196 865.750000,654.717773 
		C865.647705,653.826477 864.636353,652.530945 863.813293,652.316772 
		C859.730835,651.254150 855.570374,650.491333 851.367737,649.608276 
		C850.761292,658.181519 847.497742,660.676392 839.579468,659.295044 
		C833.359741,658.210022 827.139465,657.126953 820.910706,656.095703 
		C816.017029,655.285461 811.110046,654.555664 806.208984,653.790100 
		C806.056580,654.218750 805.904236,654.647461 805.751892,655.076111 
		C807.928955,656.778015 810.106079,658.479919 812.872864,660.608093 
	M1034.566528,874.214050 
		C1031.254517,872.007324 1027.942627,869.800659 1024.232910,867.328918 
		C1023.306885,869.442383 1022.520874,871.241577 1021.730225,873.038818 
		C1020.926819,874.865173 1020.186646,876.723267 1019.300110,878.508545 
		C1016.849976,883.442566 1013.285828,884.807922 1008.232727,882.692932 
		C1003.862305,880.863647 999.542725,878.912903 995.200623,877.015869 
		C1000.167358,886.805725 1006.456970,894.972229 1017.070557,898.409180 
		C1018.652710,898.921509 1021.744507,898.739563 1022.312134,897.788818 
		C1026.793091,890.283691 1030.830688,882.513916 1034.566528,874.214050 
	M804.522034,653.483826 
		C804.522034,653.483826 804.601196,653.486877 804.522034,653.483826 
	z"/>
	<path fill="#3399FE" opacity="1.000000" stroke="none" 
		d="
	M1057.864502,243.902283 
		C1064.322510,218.288177 1075.755981,195.987579 1097.274780,180.495346 
		C1113.638428,168.714584 1109.231934,169.646057 1125.681641,178.500031 
		C1151.643799,192.473969 1171.231323,213.688217 1187.607544,237.631454 
		C1199.784546,255.435043 1210.240234,274.420654 1221.287476,292.984009 
		C1222.251709,294.604126 1222.484863,297.131653 1222.059082,299.011566 
		C1221.072632,303.366058 1219.534790,307.602173 1218.111694,311.849823 
		C1214.931030,321.344269 1209.737183,327.250763 1198.974365,330.591705 
		C1172.567139,338.788971 1155.607178,358.619354 1142.957886,382.422607 
		C1141.172729,385.781982 1139.610352,389.259766 1137.621338,393.347839 
		C1134.725586,387.822235 1132.093506,382.799561 1129.339722,377.544739 
		C1134.398315,372.950562 1139.343628,368.524261 1144.213989,364.017029 
		C1148.623535,359.936279 1149.266479,355.425140 1146.078247,351.810852 
		C1143.043579,348.370392 1138.232300,348.817413 1133.853516,352.860443 
		C1130.100464,356.325684 1126.279175,359.717194 1122.054321,363.533142 
		C1118.170654,356.140747 1114.525391,349.277161 1110.950806,342.376923 
		C1107.287842,335.306152 1104.319458,334.286133 1096.922974,337.689240 
		C1088.340820,341.637848 1079.759521,345.588074 1070.198120,349.988495 
		C1066.904907,339.798584 1063.373535,330.195007 1060.705688,320.357208 
		C1053.903931,295.274200 1052.280273,269.908081 1057.864502,243.902283 
	z"/>
	<path fill="#FEFEFE" opacity="1.000000" stroke="none" 
		d="
	M974.435059,210.430084 
		C994.576660,193.276077 1015.996033,178.868317 1040.887451,170.322708 
		C1056.984131,164.796463 1073.530273,163.806519 1091.430054,166.000046 
		C1073.352905,178.919510 1060.823975,195.018204 1052.158569,214.133560 
		C1040.591553,239.649628 1037.960693,266.542267 1040.480225,294.117798 
		C1042.430176,315.460144 1048.582764,335.763733 1056.726440,356.191620 
		C1025.686401,370.326599 994.824341,384.380493 963.689575,398.558624 
		C952.337158,379.927979 943.184753,360.629852 937.351440,339.936859 
		C929.288086,311.333710 928.481750,282.888672 940.970581,255.072266 
		C948.731689,237.786011 960.223022,223.314484 974.435059,210.430084 
	z"/>
	<path fill="#FEFEFE" opacity="1.000000" stroke="none" 
		d="
	M1282.646729,465.640259 
		C1260.591675,487.081848 1235.069580,499.946869 1204.142334,500.122498 
		C1173.827637,500.294617 1147.782715,477.489044 1145.328003,447.294189 
		C1142.244629,409.366669 1154.884888,377.035400 1185.936768,354.353271 
		C1210.981812,336.059021 1238.934326,334.399170 1266.169067,349.951233 
		C1293.244507,365.412231 1305.155151,389.848450 1303.173584,420.909637 
		C1302.067749,438.244690 1294.329224,452.692230 1282.646729,465.640259 
	z"/>
	<path fill="#9C5757" opacity="1.000000" stroke="none" 
		d="
	M590.758972,797.991760 
		C577.884155,836.882263 553.196716,865.317139 515.805542,882.404663 
		C511.612610,884.320740 507.079376,885.492310 502.146881,886.701050 
		C487.294525,869.949646 473.855835,852.645874 458.454956,837.312988 
		C444.027740,822.949463 427.522614,810.672974 411.931885,797.478088 
		C416.210327,779.366089 425.793304,764.083801 437.581482,750.072815 
		C454.340485,730.153442 475.639099,717.063110 500.750549,709.471191 
		C534.196411,734.729370 563.701111,763.167847 588.423645,796.427429 
		C588.950317,797.135986 589.969543,797.478455 590.758972,797.991760 
	M464.825806,779.198425 
		C463.314636,781.667847 462.214935,780.290222 460.609039,779.063232 
		C457.290802,776.527893 453.721436,776.621948 450.728821,779.675293 
		C447.728394,782.736816 447.794556,786.212036 450.291077,789.611328 
		C451.152924,790.784790 452.224396,791.804321 453.417358,793.136841 
		C451.993011,794.990723 450.677002,796.673462 449.393250,798.380371 
		C445.981232,802.916992 446.004974,807.291687 449.438080,809.826355 
		C453.421692,812.767395 457.631439,811.986755 461.157349,807.683411 
		C462.152588,806.468811 463.216064,805.310059 464.246582,804.127502 
		C470.392090,809.576599 474.580963,810.343201 478.112061,806.968201 
		C481.537750,803.693970 480.672913,800.350952 473.961823,791.430115 
		C475.770477,789.463074 477.618073,787.453735 479.432709,785.480164 
		C486.253204,790.756958 489.605865,791.507263 492.877930,788.291748 
		C494.091949,787.098694 495.569275,784.957825 495.251312,783.659302 
		C494.436493,780.331604 492.681885,777.233948 491.060455,773.483154 
		C492.955872,771.806030 495.393402,769.649231 497.750824,767.563293 
		C504.412964,772.582336 507.823822,773.060486 511.357574,769.725220 
		C514.539429,766.721985 514.260803,763.024109 510.336761,757.206116 
		C512.189331,755.824402 514.036499,754.420044 515.911377,753.053711 
		C520.334839,749.829895 521.370056,745.393616 518.585510,741.501526 
		C516.210083,738.181396 511.183563,737.887695 506.959869,740.899536 
		C504.275726,742.813721 501.666718,744.833374 499.083191,746.761536 
		C491.621765,740.626770 488.292999,739.697998 484.863922,743.078735 
		C483.637512,744.287842 482.153687,746.379517 482.427490,747.737671 
		C483.075623,750.952271 484.706757,753.968567 486.149078,757.588562 
		C484.250885,759.274048 481.831635,761.422119 479.493958,763.497803 
		C474.398956,759.603760 470.409943,759.197693 467.472137,761.991943 
		C464.042145,765.254395 464.281921,768.694397 468.475281,774.909302 
		C467.426575,776.115479 466.342560,777.362305 464.825806,779.198425 
	z"/>
	<path fill="#3399FE" opacity="1.000000" stroke="none" 
		d="
	M1111.694214,553.692871 
		C1098.141479,567.929016 1084.770630,581.850403 1071.570190,595.931458 
		C1069.345093,598.304932 1067.790894,598.149109 1065.282593,596.504150 
		C1045.814941,583.736633 1026.291748,571.052673 1006.700806,558.474976 
		C1003.931335,556.696960 1003.218933,554.957825 1003.735962,551.605591 
		C1007.031433,530.238708 1010.095459,508.834412 1012.984497,487.408569 
		C1013.427124,484.125336 1015.376221,483.465912 1017.767029,482.631531 
		C1043.208374,473.752869 1068.349609,464.109528 1091.916016,450.913696 
		C1104.636475,443.790863 1116.937012,435.918060 1130.059082,428.002319 
		C1128.228882,455.018066 1134.244141,479.210083 1156.586304,497.791168 
		C1141.499146,516.590759 1126.716309,535.011292 1111.694214,553.692871 
	z"/>
	<path fill="#FEFEFE" opacity="1.000000" stroke="none" 
		d="
	M936.153931,608.844543 
		C921.829895,602.468445 907.648560,596.764954 892.411987,594.564758 
		C887.556091,593.863525 882.457581,594.158508 877.549438,594.707520 
		C873.130066,595.201904 869.801758,597.879211 868.993896,602.559143 
		C867.053772,613.800049 865.287781,625.070984 863.368713,636.837097 
		C858.385315,635.727539 852.292725,634.450867 846.259583,632.937317 
		C845.408264,632.723694 844.508545,631.462891 844.200867,630.504089 
		C837.490479,609.589111 830.854370,588.620789 832.049683,566.243469 
		C832.648926,555.025269 835.942810,544.328247 847.759521,540.925110 
		C854.944519,538.855957 863.327576,539.531555 870.934570,540.626892 
		C888.829346,543.203491 905.534607,550.016357 921.415161,558.336426 
		C942.277649,569.266663 962.688660,581.066589 983.180115,592.692932 
		C991.091919,597.182007 995.479919,595.449280 997.234375,586.535828 
		C998.131409,581.978271 999.090149,577.432922 1000.079163,572.597473 
		C1019.041504,584.946838 1037.754395,597.133789 1057.187988,609.790100 
		C1044.518188,619.998840 1031.704346,629.720093 1019.628906,640.285339 
		C1012.651794,646.389954 1007.412781,646.661316 999.072388,641.823669 
		C978.717285,630.017151 957.422852,619.830078 936.153931,608.844543 
	z"/>
	<path fill="#FEFEFE" opacity="1.000000" stroke="none" 
		d="
	M1050.850220,782.632202 
		C1055.912720,757.110107 1058.563110,731.838806 1054.897827,706.334290 
		C1053.439575,696.187622 1050.782959,686.213196 1048.564697,675.649170 
		C1065.521973,662.321167 1083.113892,648.494324 1100.697876,634.673889 
		C1116.290405,642.715698 1132.044189,650.840637 1148.972412,659.571350 
		C1114.106812,727.027161 1079.317627,794.335022 1044.162720,862.350403 
		C1038.690674,858.729797 1034.351929,855.858948 1030.999756,853.640991 
		C1037.729370,829.628418 1044.255859,806.340271 1050.850220,782.632202 
	z"/>
	<path fill="#3297FC" opacity="1.000000" stroke="none" 
		d="
	M1139.938721,576.935303 
		C1103.716553,613.973633 1064.444458,646.801086 1021.321777,675.989258 
		C1018.356079,672.132690 1015.467407,668.376282 1012.185120,664.107971 
		C1074.014771,620.909302 1125.019775,567.214355 1168.386230,506.046722 
		C1172.933838,507.908905 1177.133911,509.873077 1181.499268,511.347656 
		C1185.876709,512.826294 1190.418945,513.816711 1195.635010,515.222107 
		C1178.044678,536.807190 1159.420898,557.015320 1139.938721,576.935303 
	z"/>
	<path fill="#656565" opacity="1.000000" stroke="none" 
		d="
	M1069.612061,400.610413 
		C1046.802124,413.552643 1023.124084,423.701294 998.986328,432.859314 
		C995.662781,434.120300 993.420593,434.065857 990.923096,430.892822 
		C986.610718,425.414185 981.599976,420.486633 976.910095,415.302673 
		C975.724426,413.992126 974.643921,412.586456 972.992310,410.593750 
		C1015.344971,391.262268 1057.033691,372.233856 1099.245361,352.966675 
		C1102.840942,359.757751 1106.380859,366.443970 1110.557739,374.333191 
		C1096.964233,383.061676 1083.445801,391.741974 1069.612061,400.610413 
	z"/>
	<path fill="#3297FC" opacity="1.000000" stroke="none" 
		d="
	M1151.219971,643.779053 
		C1138.359619,637.111511 1125.837646,630.610168 1112.597046,623.735779 
		C1149.330078,590.725708 1182.586914,555.170898 1214.118652,517.754211 
		C1210.773682,525.105225 1207.484375,532.482239 1204.073975,539.802795 
		C1188.226685,573.819519 1172.324219,607.810608 1156.521729,641.848022 
		C1155.371826,644.324829 1154.389160,646.005310 1151.219971,643.779053 
	z"/>
	<path fill="#3297FC" opacity="1.000000" stroke="none" 
		d="
	M869.375732,430.481079 
		C866.616638,431.292328 864.213135,431.945496 861.088074,432.794769 
		C859.948608,428.194244 858.306885,423.663116 857.783020,419.006226 
		C856.747925,409.804749 855.087280,400.420593 855.914673,391.314545 
		C857.709717,371.558868 867.498657,362.423615 887.212585,360.096527 
		C900.372375,358.543121 913.448730,359.555786 926.410767,362.067535 
		C927.598206,362.297668 929.049133,363.434967 929.560791,364.532043 
		C934.187317,374.453064 938.631653,384.459106 943.285217,394.786011 
		C939.081909,393.414459 934.843445,391.898376 930.528015,390.648010 
		C917.024536,386.735474 903.423218,383.661774 889.374634,387.802795 
		C878.264587,391.077637 871.979187,398.481964 871.043335,410.058258 
		C870.590637,415.657562 871.202576,421.337311 871.137634,426.978363 
		C871.124695,428.098511 870.223206,429.208405 869.375732,430.481079 
	z"/>
	<path fill="#9C5757" opacity="1.000000" stroke="none" 
		d="
	M485.053131,889.946716 
		C472.144135,892.074768 459.615967,889.792664 447.222992,886.483887 
		C442.751495,885.290100 438.516266,883.185303 434.029327,882.080627 
		C425.007721,879.859314 420.576996,873.828369 417.495056,865.424988 
		C411.470551,848.998169 407.826874,832.329224 409.435547,814.382935 
		C418.617279,821.369385 427.696381,828.417297 436.116699,836.179810 
		C453.987671,852.654724 470.586548,870.345215 485.053131,889.946716 
	z"/>
	<path fill="#9C5757" opacity="1.000000" stroke="none" 
		d="
	M520.563232,705.540283 
		C542.385925,703.191650 563.210449,707.446777 583.468079,715.204895 
		C584.628845,715.649536 585.705688,717.138062 586.195496,718.386414 
		C593.777832,737.711182 597.072693,757.662781 594.105225,778.575134 
		C582.563782,766.296753 572.159668,753.272400 560.442810,741.561401 
		C547.789307,728.914429 533.908569,717.495117 520.563232,705.540283 
	z"/>
	<path fill="#FDFCFC" opacity="1.000000" stroke="none" 
		d="
	M485.482117,890.027283 
		C470.586548,870.345215 453.987671,852.654724 436.116699,836.179810 
		C427.696381,828.417297 418.617279,821.369385 409.508392,813.907532 
		C409.965698,808.614136 410.751312,803.410950 411.734406,797.842896 
		C427.522614,810.672974 444.027740,822.949463 458.454956,837.312988 
		C473.855835,852.645874 487.294525,869.949646 501.752533,886.679565 
		C496.580536,888.013367 491.245819,889.060608 485.482117,890.027283 
	z"/>
	<path fill="#FDFCFC" opacity="1.000000" stroke="none" 
		d="
	M520.191772,705.438477 
		C533.908569,717.495117 547.789307,728.914429 560.442810,741.561401 
		C572.159668,753.272400 582.563782,766.296753 593.855347,778.897949 
		C593.087463,785.104126 592.010193,791.155212 590.845947,797.598999 
		C589.969543,797.478455 588.950317,797.135986 588.423645,796.427429 
		C563.701111,763.167847 534.196411,734.729370 501.125244,709.464722 
		C507.294037,707.877319 513.557190,706.607056 520.191772,705.438477 
	z"/>
	<path fill="#FDFCFC" opacity="1.000000" stroke="none" 
		d="
	M1000.717529,688.648926 
		C998.335938,690.693665 996.174622,692.448730 994.185974,694.381409 
		C989.916748,698.530579 986.125488,703.280090 981.436218,706.865051 
		C972.652649,713.580139 962.234924,713.624329 953.954834,706.396851 
		C947.784302,701.010681 942.541870,694.453491 937.459778,687.968262 
		C934.384888,684.044373 935.445068,681.176697 940.363770,680.526367 
		C949.368835,679.335876 958.498962,678.864014 967.590454,678.640686 
		C973.034790,678.506958 978.499207,679.600647 983.965698,679.759338 
		C986.145813,679.822571 988.539551,679.229248 990.510254,678.267395 
		C993.612000,676.753479 996.438293,674.675171 999.745056,672.608582 
		C1002.599731,676.322937 1005.383789,679.945312 1008.475525,683.968140 
		C1005.783020,685.582214 1003.399536,687.011047 1000.717529,688.648926 
	z"/>
	<path fill="#656565" opacity="1.000000" stroke="none" 
		d="
	M1104.915771,425.918457 
		C1097.286255,430.382477 1089.901611,434.556244 1082.701416,439.027161 
		C1079.502563,441.013428 1077.462646,441.116211 1074.902710,437.810547 
		C1070.852539,432.580688 1066.145020,427.859772 1061.326538,422.489807 
		C1071.030640,416.768860 1080.500244,411.442444 1089.702637,405.688629 
		C1098.834595,399.978973 1107.697388,393.838989 1117.329224,387.456390 
		C1120.869141,394.285034 1124.462280,400.952759 1127.691772,407.792175 
		C1128.080444,408.615265 1126.842529,410.847839 1125.775024,411.612701 
		C1119.020264,416.452606 1112.100830,421.062988 1104.915771,425.918457 
	z"/>
	<path fill="#656565" opacity="1.000000" stroke="none" 
		d="
	M1060.806274,449.949158 
		C1045.925659,455.771454 1031.344971,461.374451 1016.869263,467.236725 
		C1013.283813,468.688721 1011.033691,467.849213 1008.678589,465.055542 
		C1004.516968,460.118835 1000.069702,455.422913 995.176636,449.999573 
		C1000.828430,447.827515 1005.910278,445.970673 1010.917358,443.930298 
		C1021.693298,439.539062 1032.468018,435.139984 1043.158691,430.547302 
		C1045.950195,429.347992 1047.684937,429.185394 1049.862915,431.907776 
		C1054.216675,437.349609 1059.119751,442.351837 1064.066650,447.835571 
		C1062.935913,448.605652 1062.040405,449.215607 1060.806274,449.949158 
	z"/>
	<path fill="#FDFCFC" opacity="1.000000" stroke="none" 
		d="
	M877.427124,487.367218 
		C864.211060,487.723877 862.361023,485.488708 864.938660,472.854156 
		C865.104370,472.042175 865.195435,471.193634 865.501648,470.434937 
		C868.550232,462.881927 870.515320,455.315643 865.161560,447.424561 
		C868.752075,446.362427 871.556824,445.532745 873.453125,444.971832 
		C879.103821,450.651001 884.476318,455.690552 889.401428,461.134888 
		C892.376404,464.423431 894.857117,468.216827 897.195740,472.008026 
		C899.786255,476.207428 898.506531,480.143188 894.269104,481.999390 
		C889.028809,484.294830 883.344971,485.577698 877.427124,487.367218 
	z"/>
	<path fill="#3264FB" opacity="1.000000" stroke="none" 
		d="
	M812.578003,660.394958 
		C810.106079,658.479919 807.928955,656.778015 805.751892,655.076111 
		C805.904236,654.647461 806.056580,654.218750 806.208984,653.790100 
		C811.110046,654.555664 816.017029,655.285461 820.910706,656.095703 
		C827.139465,657.126953 833.359741,658.210022 839.579468,659.295044 
		C847.497742,660.676392 850.761292,658.181519 851.367737,649.608276 
		C855.570374,650.491333 859.730835,651.254150 863.813293,652.316772 
		C864.636353,652.530945 865.647705,653.826477 865.750000,654.717773 
		C866.524048,661.463196 867.093140,668.232056 867.774048,675.505615 
		C847.837463,675.942810 829.479187,671.604309 812.578003,660.394958 
	z"/>
	<path fill="#3264FB" opacity="1.000000" stroke="none" 
		d="
	M1034.785645,874.519775 
		C1030.830688,882.513916 1026.793091,890.283691 1022.312134,897.788818 
		C1021.744507,898.739563 1018.652710,898.921509 1017.070557,898.409180 
		C1006.456970,894.972229 1000.167358,886.805725 995.200623,877.015869 
		C999.542725,878.912903 1003.862305,880.863647 1008.232727,882.692932 
		C1013.285828,884.807922 1016.849976,883.442566 1019.300110,878.508545 
		C1020.186646,876.723267 1020.926819,874.865173 1021.730225,873.038818 
		C1022.520874,871.241577 1023.306885,869.442383 1024.232910,867.328918 
		C1027.942627,869.800659 1031.254517,872.007324 1034.785645,874.519775 
	z"/>
	<path fill="#3264FB" opacity="1.000000" stroke="none" 
		d="
	M804.561646,653.485352 
		C804.601196,653.486877 804.522034,653.483826 804.561646,653.485352 
	z"/>
	<path fill="#FEFEFE" opacity="1.000000" stroke="none" 
		d="
	M465.042175,778.903809 
		C466.342560,777.362305 467.426575,776.115479 468.475281,774.909302 
		C464.281921,768.694397 464.042145,765.254395 467.472137,761.991943 
		C470.409943,759.197693 474.398956,759.603760 479.493958,763.497803 
		C481.831635,761.422119 484.250885,759.274048 486.149078,757.588562 
		C484.706757,753.968567 483.075623,750.952271 482.427490,747.737671 
		C482.153687,746.379517 483.637512,744.287842 484.863922,743.078735 
		C488.292999,739.697998 491.621765,740.626770 499.083191,746.761536 
		C501.666718,744.833374 504.275726,742.813721 506.959869,740.899536 
		C511.183563,737.887695 516.210083,738.181396 518.585510,741.501526 
		C521.370056,745.393616 520.334839,749.829895 515.911377,753.053711 
		C514.036499,754.420044 512.189331,755.824402 510.336761,757.206116 
		C514.260803,763.024109 514.539429,766.721985 511.357574,769.725220 
		C507.823822,773.060486 504.412964,772.582336 497.750824,767.563293 
		C495.393402,769.649231 492.955872,771.806030 491.060455,773.483154 
		C492.681885,777.233948 494.436493,780.331604 495.251312,783.659302 
		C495.569275,784.957825 494.091949,787.098694 492.877930,788.291748 
		C489.605865,791.507263 486.253204,790.756958 479.432709,785.480164 
		C477.618073,787.453735 475.770477,789.463074 473.961823,791.430115 
		C480.672913,800.350952 481.537750,803.693970 478.112061,806.968201 
		C474.580963,810.343201 470.392090,809.576599 464.246582,804.127502 
		C463.216064,805.310059 462.152588,806.468811 461.157349,807.683411 
		C457.631439,811.986755 453.421692,812.767395 449.438080,809.826355 
		C446.004974,807.291687 445.981232,802.916992 449.393250,798.380371 
		C450.677002,796.673462 451.993011,794.990723 453.417358,793.136841 
		C452.224396,791.804321 451.152924,790.784790 450.291077,789.611328 
		C447.794556,786.212036 447.728394,782.736816 450.728821,779.675293 
		C453.721436,776.621948 457.290802,776.527893 460.609039,779.063232 
		C462.214935,780.290222 463.314636,781.667847 465.042175,778.903809 
	z"/>
</svg>