<svg version="1.1" xmlns="http://www.w3.org/2000/svg" xmlns:xlink="http://www.w3.org/1999/xlink" x="0px" y="0px"
	 width="100%" viewBox="0 0 1920 1080" enable-background="new 0 0 1920 1080" xml:space="preserve">
	<path fill="#000000" opacity="0.000000" stroke="none" 
		d="M1369.000000,1081.000000 
		C912.666748,1081.000000 456.833496,1081.000000 1.000183,1081.000000 
		C1.000122,721.000122 1.000122,361.000305 1.000061,1.000328 
		C640.999756,1.000219 1280.999512,1.000219 1920.999512,1.000109 
		C1920.999634,360.999664 1920.999634,720.999329 1920.999756,1080.999512 
		C1737.166626,1081.000000 1553.333374,1081.000000 1369.000000,1081.000000 
	M1270.799438,278.103058 
		C1291.391479,275.326965 1309.559326,266.725616 1326.308716,254.822342 
		C1327.304077,254.114929 1328.042725,252.320526 1328.034058,251.037781 
		C1327.949585,238.443344 1328.390259,225.782990 1327.206909,213.280960 
		C1326.458252,205.369614 1323.209595,197.694901 1321.053345,189.159241 
		C1318.066162,183.112961 1315.078979,177.066681 1312.077881,170.299591 
		C1286.810791,131.839142 1251.744751,110.442818 1204.281250,108.844673 
		C1199.222290,109.278023 1194.163452,109.711365 1188.298218,110.107544 
		C1167.705566,113.707687 1150.207031,123.558197 1134.517212,136.943314 
		C1133.005615,138.232803 1131.453979,140.336365 1131.280273,142.189529 
		C1130.335083,152.268219 1128.669434,162.479843 1129.478638,172.465256 
		C1130.263550,182.151169 1133.740845,191.618896 1135.955322,201.924911 
		C1138.575439,207.087372 1141.195679,212.249832 1143.649170,218.112228 
		C1150.840698,232.038162 1161.893188,242.546677 1173.996094,252.059784 
		C1175.199463,253.005600 1177.429932,253.165619 1179.081787,252.940887 
		C1201.405273,249.903793 1218.182129,259.867371 1232.644165,275.471558 
		C1233.683838,276.593353 1235.081665,277.887604 1236.463989,278.094971 
		C1241.029785,278.779816 1245.664795,279.002625 1251.095337,279.490204 
		C1257.377319,278.991669 1263.659180,278.493134 1270.799438,278.103058 
	M975.486877,675.020386 
		C992.072815,638.702576 1010.046997,602.989136 1024.014038,564.586670 
		C1002.670776,569.082214 983.036743,567.065491 964.529358,556.342041 
		C945.809204,545.495422 934.278564,529.494385 929.318909,508.199707 
		C924.690308,511.261078 920.707642,513.945435 916.675842,516.553894 
		C885.761108,536.554993 852.303589,551.143555 817.507141,562.791931 
		C813.701538,564.065857 812.452698,565.987610 811.941895,569.713074 
		C809.207703,589.654968 806.275574,609.570496 803.256958,629.471680 
		C802.704834,633.111755 803.155518,635.575623 806.650452,637.735840 
		C835.223022,655.395996 863.407410,673.700439 892.259766,690.885864 
		C911.776978,702.510925 932.183228,712.643433 952.574768,723.650208 
		C960.309998,707.212769 967.726624,691.452332 975.486877,675.020386 
	M855.401794,794.333740 
		C856.775452,813.722839 854.852234,832.873108 851.398987,851.935852 
		C846.849854,877.047424 839.193848,901.260986 830.644531,925.235962 
		C830.148438,926.627136 830.025085,929.171387 830.830627,929.829163 
		C834.226685,932.602417 838.040955,934.863403 842.807068,938.050659 
		C877.746765,870.762939 912.371460,804.081909 947.116150,737.169739 
		C895.252258,711.333679 846.370239,683.260681 799.645752,650.708008 
		C799.018066,653.645386 798.504700,655.884521 798.067444,658.138367 
		C797.592163,660.587891 797.240295,663.061890 796.742615,665.506470 
		C795.109070,673.529480 790.434021,675.570923 783.442749,671.282104 
		C759.640991,656.680908 735.530701,642.635803 709.776306,631.693298 
		C692.271912,624.256042 674.473816,617.862732 654.955994,618.821289 
		C645.686523,619.276489 639.036499,623.650818 635.899048,632.295837 
		C634.231506,636.890442 633.283875,641.955444 633.111572,646.846924 
		C632.415466,666.608154 637.851379,685.335815 643.602417,703.955872 
		C643.929199,705.013916 645.083923,706.284363 646.107544,706.582275 
		C652.254211,708.371155 658.475281,709.904358 663.968872,711.339661 
		C665.931335,700.714661 667.762817,690.464478 669.737732,680.242065 
		C670.779907,674.847290 674.718506,672.366882 679.729980,672.084534 
		C684.678650,671.805786 689.993347,671.344971 694.592224,672.763672 
		C709.607605,677.395691 724.847717,681.783752 739.134155,688.197327 
		C774.025085,703.861084 806.942261,723.307190 839.378967,743.508545 
		C842.117554,745.214111 844.577148,748.286743 845.841003,751.283264 
		C851.508484,764.720093 854.429016,778.854248 855.401794,794.333740 
	M748.055542,443.449127 
		C753.778076,455.156830 759.500610,466.864563 765.352478,478.836792 
		C796.961121,464.452728 827.526367,450.543488 858.172668,436.597351 
		C848.271118,412.064178 841.375366,387.370270 840.891663,361.246338 
		C840.238586,325.975342 849.100220,293.769806 872.397278,266.525330 
		C877.836365,260.164642 884.316650,254.694229 890.812317,248.329727 
		C878.929199,247.564224 867.388123,247.188873 855.921082,249.539902 
		C837.969055,253.220520 821.697144,260.719391 806.348938,270.693787 
		C789.944885,281.354370 774.379944,292.904236 761.691772,307.937561 
		C747.106995,325.218170 737.533447,344.782990 734.849792,367.461761 
		C731.728455,393.839447 737.615234,418.648315 748.055542,443.449127 
	M1092.061279,499.549072 
		C1099.069458,485.964020 1101.123901,471.693542 1099.270752,456.483521 
		C1092.857910,403.848633 1030.044067,372.877869 982.577576,408.201508 
		C953.684570,429.702972 941.581299,460.157898 943.013489,495.917145 
		C944.409912,530.786743 971.955811,551.158447 999.425354,551.465271 
		C1039.247437,551.910217 1070.389038,534.264343 1092.061279,499.549072 
	M976.252319,393.707947 
		C990.038635,384.002808 1005.698547,379.583862 1022.639282,377.934601 
		C1022.020142,376.285797 1021.729126,375.175507 1021.212219,374.182892 
		C1008.115112,349.034424 993.521118,324.846924 975.251953,303.042755 
		C958.830505,283.443817 940.321167,266.463287 916.621460,255.844162 
		C913.316895,254.363464 910.862305,254.613480 907.872925,256.302551 
		C885.403931,268.998169 871.529846,288.595093 863.056763,312.365753 
		C853.781250,338.387238 853.796814,365.013184 859.710266,391.633545 
		C862.606750,404.672791 866.983948,417.383118 870.854065,430.807953 
		C880.943726,426.182159 889.805908,422.067505 898.713196,418.052826 
		C905.161804,415.146393 908.502258,416.379303 911.704346,422.593018 
		C915.268494,429.509338 918.860840,436.411102 922.741333,443.898926 
		C927.327759,439.879150 931.482666,436.110016 935.796509,432.532562 
		C937.132690,431.424469 938.936829,430.897980 940.462341,429.996246 
		C942.267578,428.929199 944.634277,428.151062 945.669067,426.545959 
		C953.781860,413.961334 963.272400,402.715057 976.252319,393.707947 
	M840.395264,460.908966 
		C818.842529,470.720886 797.289795,480.532806 775.031189,490.666107 
		C781.572266,497.905029 787.606689,504.304108 793.284424,511.005341 
		C795.524841,513.649719 797.436646,513.856140 800.537170,512.703918 
		C826.004150,503.239258 850.846680,492.393982 874.253784,478.563202 
		C886.805298,471.146790 898.849792,462.872375 911.335632,454.848541 
		C907.296143,447.192505 903.773376,440.515778 900.410522,434.142212 
		C899.543152,434.142212 899.355591,434.088379 899.220276,434.149811 
		C879.835571,442.952942 860.454712,451.764496 840.395264,460.908966 
	M741.494324,465.994629 
		C738.607849,459.651550 735.919678,453.205566 732.713867,447.028229 
		C731.755127,445.180756 729.462891,443.017029 727.588379,442.817932 
		C716.046875,441.592316 704.382629,439.647278 692.885742,440.271454 
		C669.858887,441.521698 659.136658,450.140900 656.479919,471.319336 
		C655.017761,482.974701 656.987244,494.323059 659.944397,505.723663 
		C664.115295,505.109924 667.636047,504.591858 671.149719,504.074829 
		C671.149719,501.932373 671.181274,500.446686 671.144958,498.962616 
		C670.602966,476.820404 681.183594,465.533020 703.335144,466.222351 
		C712.660156,466.512512 721.962341,468.992950 731.171692,470.960602 
		C736.162354,472.026855 740.935974,474.108551 746.611816,476.000305 
		C744.703430,472.245239 743.281189,469.446686 741.494324,465.994629 
	M1128.821655,369.343445 
		C1137.010376,357.047089 1145.199097,344.750702 1153.654541,332.053741 
		C1149.653809,328.603241 1145.677246,325.173706 1141.849365,321.872345 
		C1119.431152,345.449432 1097.268555,368.757660 1075.533325,391.616425 
		C1083.787476,399.354828 1091.942017,407.000031 1100.168335,414.712341 
		C1109.453369,399.989319 1118.929443,384.963654 1128.821655,369.343445 
	M1169.459106,278.990417 
		C1163.705078,289.111176 1161.257446,301.130707 1152.074951,309.292511 
		C1151.904785,309.443756 1152.007568,309.902222 1151.965454,310.443176 
		C1155.382446,313.387238 1158.894287,316.412933 1162.537598,319.551941 
		C1163.241089,318.713287 1164.046753,318.055511 1164.465698,317.206909 
		C1169.332275,307.345490 1177.435669,302.487640 1188.156128,300.976898 
		C1192.526489,300.361053 1196.783325,298.621033 1200.960815,297.045197 
		C1205.284546,295.414185 1209.631348,293.685608 1213.645996,291.427155 
		C1222.096191,286.673370 1222.284424,283.675262 1214.292480,277.973694 
		C1210.008057,274.916992 1205.337402,272.171936 1200.468994,270.208740 
		C1188.429688,265.353790 1177.724609,265.450623 1169.459106,278.990417 
	M899.864990,509.373322 
		C908.295044,503.763275 916.671143,498.069366 925.187866,492.594177 
		C927.751282,490.946259 928.708435,488.836212 927.510498,486.330597 
		C924.542786,480.123077 921.231934,474.079590 918.332642,468.497101 
		C899.563965,480.083099 881.401367,491.294983 862.923584,502.701385 
		C867.719055,508.025085 872.459290,513.562988 877.582825,518.720032 
		C878.499084,519.642273 881.329163,519.642273 882.714355,518.948181 
		C888.345581,516.126282 893.758301,512.868286 899.864990,509.373322 
	M863.310974,525.164856 
		C858.372620,519.801086 853.434326,514.437317 848.619507,509.207672 
		C831.592712,516.085327 814.888306,522.832764 797.620056,529.807922 
		C802.900696,535.771179 807.880310,541.493042 813.025879,547.061523 
		C813.573853,547.654602 815.248108,547.750549 816.137329,547.403870 
		C831.742065,541.320007 847.317810,535.160339 862.835632,528.859070 
		C863.462830,528.604370 863.458618,526.794617 863.310974,525.164856 
	M665.010559,523.703857 
		C665.940674,526.368835 666.637207,529.146118 667.852173,531.674194 
		C670.021973,536.188965 669.609619,540.393433 667.981323,545.051636 
		C666.359375,549.691589 665.640259,554.686279 664.894287,559.581665 
		C664.237793,563.889954 666.833374,566.318115 670.805786,566.637512 
		C679.449768,567.332397 687.705872,565.651550 695.103882,560.965698 
		C698.643311,558.723877 700.032349,555.246826 697.507385,551.561279 
		C694.054138,546.520996 690.459473,541.485718 686.278015,537.059875 
		C681.213806,531.699646 674.473877,527.691101 674.419617,519.077759 
		C671.125244,519.477173 668.464722,519.650085 665.897400,520.233398 
		C665.365051,520.354370 665.178894,521.998779 665.010559,523.703857 
	M624.459534,744.007446 
		C638.232910,750.369202 652.662903,753.282043 668.214722,752.721008 
		C667.429932,744.496582 666.720154,736.750000 665.900757,729.014954 
		C665.830200,728.349121 665.146973,727.367859 664.556885,727.197876 
		C660.047363,725.899292 655.490295,724.765747 650.566956,723.481445 
		C653.858276,734.478516 650.182312,738.592957 639.447083,736.933960 
		C638.626953,736.807190 637.819885,736.597900 637.001465,736.457458 
		C626.996155,734.740356 616.989868,733.029053 606.983765,731.316223 
		C606.766479,731.754944 606.549133,732.193665 606.331787,732.632385 
		C612.136536,736.347168 617.941345,740.062012 624.459534,744.007446 
	M828.648560,946.859680 
		C827.016357,945.753723 825.384155,944.647705 823.407349,943.308228 
		C821.839172,946.863159 820.464783,950.043274 819.038025,953.199768 
		C816.270020,959.323181 812.820435,960.665649 806.682129,958.039978 
		C802.689331,956.332153 798.700745,954.614197 794.710266,952.900818 
		C796.260925,956.529175 797.940369,959.806702 800.544373,961.972717 
		C805.695435,966.257202 811.263977,970.071716 816.895081,973.717285 
		C817.902344,974.369446 820.929260,973.830017 821.518005,972.893921 
		C826.008301,965.754211 830.124939,958.379517 834.480408,950.866638 
		C832.502686,949.486694 830.891235,948.362366 828.648560,946.859680 
	z"/>
	<path fill="#3399FE" opacity="1.000000" stroke="none" 
		d="
	M975.315063,675.356079 
		C967.726624,691.452332 960.309998,707.212769 952.574768,723.650208 
		C932.183228,712.643433 911.776978,702.510925 892.259766,690.885864 
		C863.407410,673.700439 835.223022,655.395996 806.650452,637.735840 
		C803.155518,635.575623 802.704834,633.111755 803.256958,629.471680 
		C806.275574,609.570496 809.207703,589.654968 811.941895,569.713074 
		C812.452698,565.987610 813.701538,564.065857 817.507141,562.791931 
		C852.303589,551.143555 885.761108,536.554993 916.675842,516.553894 
		C920.707642,513.945435 924.690308,511.261078 929.318909,508.199707 
		C934.278564,529.494385 945.809204,545.495422 964.529358,556.342041 
		C983.036743,567.065491 1002.670776,569.082214 1024.014038,564.586670 
		C1010.046997,602.989136 992.072815,638.702576 975.315063,675.356079 
	z"/>
	<path fill="#FEFEFE" opacity="1.000000" stroke="none" 
		d="
	M855.294128,793.879517 
		C854.429016,778.854248 851.508484,764.720093 845.841003,751.283264 
		C844.577148,748.286743 842.117554,745.214111 839.378967,743.508545 
		C806.942261,723.307190 774.025085,703.861084 739.134155,688.197327 
		C724.847717,681.783752 709.607605,677.395691 694.592224,672.763672 
		C689.993347,671.344971 684.678650,671.805786 679.729980,672.084534 
		C674.718506,672.366882 670.779907,674.847290 669.737732,680.242065 
		C667.762817,690.464478 665.931335,700.714661 663.968872,711.339661 
		C658.475281,709.904358 652.254211,708.371155 646.107544,706.582275 
		C645.083923,706.284363 643.929199,705.013916 643.602417,703.955872 
		C637.851379,685.335815 632.415466,666.608154 633.111572,646.846924 
		C633.283875,641.955444 634.231506,636.890442 635.899048,632.295837 
		C639.036499,623.650818 645.686523,619.276489 654.955994,618.821289 
		C674.473816,617.862732 692.271912,624.256042 709.776306,631.693298 
		C735.530701,642.635803 759.640991,656.680908 783.442749,671.282104 
		C790.434021,675.570923 795.109070,673.529480 796.742615,665.506470 
		C797.240295,663.061890 797.592163,660.587891 798.067444,658.138367 
		C798.504700,655.884521 799.018066,653.645386 799.645752,650.708008 
		C846.370239,683.260681 895.252258,711.333679 947.116150,737.169739 
		C912.371460,804.081909 877.746765,870.762939 842.807068,938.050659 
		C838.040955,934.863403 834.226685,932.602417 830.830627,929.829163 
		C830.025085,929.171387 830.148438,926.627136 830.644531,925.235962 
		C839.193848,901.260986 846.849854,877.047424 851.398987,851.935852 
		C854.852234,832.873108 856.775452,813.722839 855.294128,793.879517 
	z"/>
	<path fill="#FEFEFE" opacity="1.000000" stroke="none" 
		d="
	M747.924805,443.088867 
		C737.615234,418.648315 731.728455,393.839447 734.849792,367.461761 
		C737.533447,344.782990 747.106995,325.218170 761.691772,307.937561 
		C774.379944,292.904236 789.944885,281.354370 806.348938,270.693787 
		C821.697144,260.719391 837.969055,253.220520 855.921082,249.539902 
		C867.388123,247.188873 878.929199,247.564224 890.812317,248.329727 
		C884.316650,254.694229 877.836365,260.164642 872.397278,266.525330 
		C849.100220,293.769806 840.238586,325.975342 840.891663,361.246338 
		C841.375366,387.370270 848.271118,412.064178 858.172668,436.597351 
		C827.526367,450.543488 796.961121,464.452728 765.352478,478.836792 
		C759.500610,466.864563 753.778076,455.156830 747.924805,443.088867 
	z"/>
	<path fill="#FEFEFE" opacity="1.000000" stroke="none" 
		d="
	M1091.911621,499.889343 
		C1070.389038,534.264343 1039.247437,551.910217 999.425354,551.465271 
		C971.955811,551.158447 944.409912,530.786743 943.013489,495.917145 
		C941.581299,460.157898 953.684570,429.702972 982.577576,408.201508 
		C1030.044067,372.877869 1092.857910,403.848633 1099.270752,456.483521 
		C1101.123901,471.693542 1099.069458,485.964020 1091.911621,499.889343 
	z"/>
	<path fill="#3399FE" opacity="1.000000" stroke="none" 
		d="
	M975.952759,393.905853 
		C963.272400,402.715057 953.781860,413.961334 945.669067,426.545959 
		C944.634277,428.151062 942.267578,428.929199 940.462341,429.996246 
		C938.936829,430.897980 937.132690,431.424469 935.796509,432.532562 
		C931.482666,436.110016 927.327759,439.879150 922.741333,443.898926 
		C918.860840,436.411102 915.268494,429.509338 911.704346,422.593018 
		C908.502258,416.379303 905.161804,415.146393 898.713196,418.052826 
		C889.805908,422.067505 880.943726,426.182159 870.854065,430.807953 
		C866.983948,417.383118 862.606750,404.672791 859.710266,391.633545 
		C853.796814,365.013184 853.781250,338.387238 863.056763,312.365753 
		C871.529846,288.595093 885.403931,268.998169 907.872925,256.302551 
		C910.862305,254.613480 913.316895,254.363464 916.621460,255.844162 
		C940.321167,266.463287 958.830505,283.443817 975.251953,303.042755 
		C993.521118,324.846924 1008.115112,349.034424 1021.212219,374.182892 
		C1021.729126,375.175507 1022.020142,376.285797 1022.639282,377.934601 
		C1005.698547,379.583862 990.038635,384.002808 975.952759,393.905853 
	z"/>


	<path class="mini-ball" fill="#9C5757" opacity="1.000000" stroke="none" 
		d="M1250.273315,279.402802 
			C1245.664795,279.002625 1241.029785,278.779816 1236.463989,278.094971 
			C1235.081665,277.887604 1233.683838,276.593353 1232.644165,275.471558 
			C1218.182129,259.867371 1201.405273,249.903793 1179.081787,252.940887 
			C1177.429932,253.165619 1175.199463,253.005600 1173.996094,252.059784 
			C1161.893188,242.546677 1150.840698,232.038162 1143.789795,217.389252 
			C1160.493896,194.974854 1175.929810,172.517731 1188.048218,148.015259 
			C1194.349121,135.275421 1199.549683,121.991409 1205.247437,108.953232 
			C1251.744751,110.442818 1286.810791,131.839142 1312.051025,171.028961 
			C1299.781128,202.050369 1284.413818,230.666275 1265.854492,257.554199 
			C1260.773804,264.915009 1255.473022,272.124084 1250.273315,279.402802 
			M1224.932983,141.171326 
			C1223.328003,143.025864 1221.723022,144.880402 1219.941040,146.939484 
			C1214.431030,145.733810 1207.595581,139.142426 1203.102661,147.474762 
			C1198.610962,155.804947 1207.376831,157.482834 1212.274902,160.527344 
			C1208.538330,167.742661 1208.385498,171.756424 1212.240723,174.176453 
			C1220.801758,179.550491 1223.158325,171.210236 1227.261108,166.605789 
			C1229.761108,167.915329 1232.025635,169.101593 1234.250854,170.267258 
			C1230.744141,178.174316 1231.031860,181.510651 1235.142822,183.990494 
			C1239.362549,186.535980 1242.935547,184.968933 1247.918457,178.110275 
			C1250.624146,179.848206 1253.355835,181.602783 1256.276367,183.478729 
			C1253.470215,187.848907 1251.860107,192.040070 1256.329346,195.780304 
			C1257.507568,196.766342 1259.553833,197.773087 1260.801758,197.407120 
			C1263.792236,196.530167 1266.545288,194.843262 1269.864502,193.258774 
			C1271.286621,194.359894 1273.184692,195.976639 1275.228638,197.380966 
			C1279.367065,200.224472 1283.689209,199.783691 1286.382935,196.377228 
			C1288.940552,193.142838 1288.324097,189.223679 1284.550293,185.834167 
			C1281.990356,183.534943 1279.271973,181.412384 1276.714478,179.285797 
			C1280.569824,170.735977 1280.406616,167.133011 1276.224121,164.477997 
			C1272.375977,162.035187 1269.280396,163.377899 1263.515259,170.128510 
			C1262.188477,169.277878 1260.826538,168.404114 1259.463989,167.531235 
			C1258.088135,166.649689 1256.711548,165.768936 1255.386719,164.920746 
			C1257.911987,158.675461 1257.206055,154.635223 1253.360840,152.346832 
			C1249.767822,150.208527 1246.423706,151.469971 1241.451782,156.969055 
			C1239.218018,155.817001 1236.927124,154.635544 1234.487061,153.377136 
			C1236.434937,149.263199 1237.270142,145.169296 1233.708984,142.516418 
			C1231.714233,141.030457 1228.368530,141.357864 1224.932983,141.171326 z"/>

	<path class="facemask" fill="#656565" opacity="1.000000" stroke="none" 
		d="M840.734497,460.742310 
		C860.454712,451.764496 879.835571,442.952942 899.220276,434.149811 
		C899.355591,434.088379 899.543152,434.142212 900.410522,434.142212 
		C903.773376,440.515778 907.296143,447.192505 911.335632,454.848541 
		C898.849792,462.872375 886.805298,471.146790 874.253784,478.563202 
		C850.846680,492.393982 826.004150,503.239258 800.537170,512.703918 
		C797.436646,513.856140 795.524841,513.649719 793.284424,511.005341 
		C787.606689,504.304108 781.572266,497.905029 775.031189,490.666107 
		C797.289795,480.532806 818.842529,470.720886 840.734497,460.742310 
		z"/>

	<path class="mini-ball" fill="#9C5757" opacity="1.000000" stroke="none" 
		d="M1136.035645,201.182434 
		C1133.740845,191.618896 1130.263550,182.151169 1129.478638,172.465256 
		C1128.669434,162.479843 1130.335083,152.268219 1131.280273,142.189529 
		C1131.453979,140.336365 1133.005615,138.232803 1134.517212,136.943314 
		C1150.207031,123.558197 1167.705566,113.707687 1188.634644,110.480164 
		C1179.281982,134.077393 1167.312134,156.104156 1153.553833,177.133972 
		C1148.131104,185.422760 1141.899170,193.182068 1136.035645,201.182434 
		z"/>

	<path class="mini-ball" fill="#9C5757" opacity="1.000000" stroke="none" 
		d="M1321.082031,189.914047 
		C1323.209595,197.694901 1326.458252,205.369614 1327.206909,213.280960 
		C1328.390259,225.782990 1327.949585,238.443344 1328.034058,251.037781 
		C1328.042725,252.320526 1327.304077,254.114929 1326.308716,254.822342 
		C1309.559326,266.725616 1291.391479,275.326965 1270.456787,277.714294 
		C1281.315308,259.710938 1292.910400,242.330582 1303.572021,224.395386 
		C1310.144531,213.339020 1315.293701,201.436600 1321.082031,189.914047 
		z"/>

	<path class="mini-ball-stitch" fill="#FEFEFE" opacity="1.000000" stroke="none" 
		d="M1135.995483,201.553680 
		C1141.899170,193.182068 1148.131104,185.422760 1153.553833,177.133972 
		C1167.312134,156.104156 1179.281982,134.077393 1189.037842,110.498741 
		C1194.163452,109.711365 1199.222290,109.278023 1204.764404,108.898956 
		C1199.549683,121.991409 1194.349121,135.275421 1188.048218,148.015259 
		C1175.929810,172.517731 1160.493896,194.974854 1143.873047,217.039276 
		C1141.195679,212.249832 1138.575439,207.087372 1135.995483,201.553680 
		z"/>

	<path class="mini-ball-stitch" fill="#FEFEFE" opacity="1.000000" stroke="none" 
		d="M1321.067627,189.536636 
		C1315.293701,201.436600 1310.144531,213.339020 1303.572021,224.395386 
		C1292.910400,242.330582 1281.315308,259.710938 1270.027710,277.660034 
		C1263.659180,278.493134 1257.377319,278.991669 1250.684326,279.446503 
		C1255.473022,272.124084 1260.773804,264.915009 1265.854492,257.554199 
		C1284.413818,230.666275 1299.781128,202.050369 1312.058105,171.389374 
		C1315.078979,177.066681 1318.066162,183.112961 1321.067627,189.536636 
		z"/>

	<path class="facemask" fill="#656565" opacity="1.000000" stroke="none" 
		d="M899.558289,509.572205 
		C893.758301,512.868286 888.345581,516.126282 882.714355,518.948181 
		C881.329163,519.642273 878.499084,519.642273 877.582825,518.720032 
		C872.459290,513.562988 867.719055,508.025085 862.923584,502.701385 
		C881.401367,491.294983 899.563965,480.083099 918.332642,468.497101 
		C921.231934,474.079590 924.542786,480.123077 927.510498,486.330597 
		C928.708435,488.836212 927.751282,490.946259 925.187866,492.594177 
		C916.671143,498.069366 908.295044,503.763275 899.558289,509.572205 
		z"/>

	<path class="facemask" fill="#656565" opacity="1.000000" stroke="none" 
		d="M863.529785,525.437134 
		C863.458618,526.794617 863.462830,528.604370 862.835632,528.859070 
		C847.317810,535.160339 831.742065,541.320007 816.137329,547.403870 
		C815.248108,547.750549 813.573853,547.654602 813.025879,547.061523 
		C807.880310,541.493042 802.900696,535.771179 797.620056,529.807922 
		C814.888306,522.832764 831.592712,516.085327 848.619507,509.207672 
		C853.434326,514.437317 858.372620,519.801086 863.529785,525.437134 
		z"/>

	<path class="mini-ball-stitch" fill="#FEFEFE" opacity="1.000000" stroke="none" 
		d="M1225.282227,141.019775 
		C1228.368530,141.357864 1231.714233,141.030457 1233.708984,142.516418 
		C1237.270142,145.169296 1236.434937,149.263199 1234.487061,153.377136 
		C1236.927124,154.635544 1239.218018,155.817001 1241.451782,156.969055 
		C1246.423706,151.469971 1249.767822,150.208527 1253.360840,152.346832 
		C1257.206055,154.635223 1257.911987,158.675461 1255.386719,164.920746 
		C1256.711548,165.768936 1258.088135,166.649689 1259.463989,167.531235 
		C1260.826538,168.404114 1262.188477,169.277878 1263.515259,170.128510 
		C1269.280396,163.377899 1272.375977,162.035187 1276.224121,164.477997 
		C1280.406616,167.133011 1280.569824,170.735977 1276.714478,179.285797 
		C1279.271973,181.412384 1281.990356,183.534943 1284.550293,185.834167 
		C1288.324097,189.223679 1288.940552,193.142838 1286.382935,196.377228 
		C1283.689209,199.783691 1279.367065,200.224472 1275.228638,197.380966 
		C1273.184692,195.976639 1271.286621,194.359894 1269.864502,193.258774 
		C1266.545288,194.843262 1263.792236,196.530167 1260.801758,197.407120 
		C1259.553833,197.773087 1257.507568,196.766342 1256.329346,195.780304 
		C1251.860107,192.040070 1253.470215,187.848907 1256.276367,183.478729 
		C1253.355835,181.602783 1250.624146,179.848206 1247.918457,178.110275 
		C1242.935547,184.968933 1239.362549,186.535980 1235.142822,183.990494 
		C1231.031860,181.510651 1230.744141,178.174316 1234.250854,170.267258 
		C1232.025635,169.101593 1229.761108,167.915329 1227.261108,166.605789 
		C1223.158325,171.210236 1220.801758,179.550491 1212.240723,174.176453 
		C1208.385498,171.756424 1208.538330,167.742661 1212.274902,160.527344 
		C1207.376831,157.482834 1198.610962,155.804947 1203.102661,147.474762 
		C1207.595581,139.142426 1214.431030,145.733810 1219.941040,146.939484 
		C1221.723022,144.880402 1223.328003,143.025864 1225.282227,141.019775 
		z"/>

</svg>