<svg version="1.1" xmlns="http://www.w3.org/2000/svg" xmlns:xlink="http://www.w3.org/1999/xlink" x="0px" y="0px"
	 width="100%" viewBox="0 0 1920 1080" enable-background="new 0 0 1920 1080" xml:space="preserve">
	<path fill="#000000" opacity="0.000000" stroke="none" 
		d="
	M1151.000000,1081.000000 
		C767.333374,1081.000000 384.166809,1081.000000 1.000154,1081.000000 
		C1.000103,721.000122 1.000103,361.000275 1.000051,1.000299 
		C640.999756,1.000199 1280.999512,1.000199 1920.999512,1.000100 
		C1920.999634,360.999664 1920.999634,720.999329 1920.999756,1080.999512 
		C1664.500000,1081.000000 1408.000000,1081.000000 1151.000000,1081.000000 
	M1063.098877,495.649414 
		C1034.833984,506.678833 1005.845703,514.989014 975.790710,519.563293 
		C945.412170,524.186829 914.915283,525.829224 884.238708,524.249756 
		C878.997437,523.979858 873.764038,523.556274 868.254883,523.185303 
		C870.936951,554.166626 861.428345,579.324829 835.621216,597.348999 
		C867.466797,626.521301 898.868530,655.287048 930.371826,684.145752 
		C979.288513,647.719299 1033.081665,627.175537 1095.199219,632.430176 
		C1086.167847,593.186584 1077.437500,554.947937 1068.494507,516.759094 
		C1067.324951,511.765076 1067.887573,507.814911 1071.328003,503.893982 
		C1075.598511,499.026855 1079.396851,493.745331 1083.399048,488.642792 
		C1083.145874,488.352112 1082.892700,488.061462 1082.639526,487.770782 
		C1076.351562,490.271759 1070.063599,492.772705 1063.098877,495.649414 
	M1103.756592,668.709534 
		C1102.423218,663.042786 1101.277344,657.320435 1099.626465,651.747681 
		C1099.206421,650.329346 1097.175781,648.370605 1095.896851,648.379272 
		C1080.431763,648.484558 1064.837769,647.762817 1049.534912,649.511292 
		C1023.047668,652.537781 998.263489,661.791809 974.914246,674.535645 
		C963.762817,680.621948 953.154785,687.704041 941.827881,694.623962 
		C951.878967,703.881287 961.046509,712.311218 970.197693,720.758850 
		C975.191895,725.369080 975.650330,728.694580 972.033813,734.177673 
		C943.102417,778.040588 914.160156,821.896240 885.228638,865.758972 
		C879.206482,874.889099 873.214661,884.039185 867.121765,893.312622 
		C870.080322,895.760376 872.742798,897.963196 875.454590,900.206848 
		C877.961121,897.874146 880.329346,895.782349 882.573669,893.565186 
		C939.457520,837.371216 996.333313,781.169067 1053.193237,724.950989 
		C1058.674438,719.531738 1060.480591,719.244019 1067.633789,722.671387 
		C1118.337036,746.964294 1164.349731,778.368591 1207.155518,814.637329 
		C1213.188232,819.748901 1219.154297,824.939270 1225.253662,830.181274 
		C1228.858032,825.169128 1232.142090,820.602356 1235.497314,815.936584 
		C1234.509766,814.682617 1233.747681,813.615723 1232.886719,812.635742 
		C1199.417114,774.545349 1163.276001,739.147400 1124.297607,706.753967 
		C1114.281250,698.429932 1106.333862,689.866211 1105.394531,676.341736 
		C1105.235107,674.047668 1104.434448,671.798157 1103.756592,668.709534 
	M900.090332,469.265900 
		C907.712158,468.549072 915.333984,467.832214 923.338562,467.079376 
		C921.340820,459.215149 919.380615,451.504852 917.423828,443.793701 
		C915.450684,436.018250 917.026489,433.369598 924.847473,430.993988 
		C934.191895,428.155640 943.512268,425.237976 952.699951,422.398865 
		C952.776245,421.677368 952.926331,421.317810 952.826477,421.052277 
		C940.818054,389.122040 924.403198,360.072418 897.119141,338.552032 
		C870.283569,317.385345 840.303101,307.210449 805.797363,313.884399 
		C802.432678,314.535217 800.553345,315.950470 799.197571,318.950623 
		C791.561707,335.848480 787.905396,353.600861 786.697388,372.056396 
		C785.408508,391.749969 786.815918,411.231049 789.177795,429.135040 
		C800.050842,433.220947 810.570129,435.793610 819.695435,440.871338 
		C843.568726,454.155457 857.269226,475.565399 863.937622,501.595612 
		C865.188721,506.479095 867.333862,507.982727 872.004639,508.047821 
		C887.312622,508.261108 902.615051,508.855682 917.922852,509.109467 
		C923.005066,509.193756 928.097046,508.691071 933.845520,508.426300 
		C931.836304,500.598297 929.887390,493.601013 928.301514,486.522308 
		C927.700439,483.839111 926.520752,483.039337 923.901550,483.112396 
		C918.075256,483.274872 912.237183,483.030029 906.412048,483.211151 
		C902.757935,483.324738 899.757874,482.400299 898.014343,479.073608 
		C896.256287,475.719177 897.193298,472.626312 900.090332,469.265900 
	M1045.060913,393.521576 
		C1052.440918,391.193573 1059.821045,388.865570 1067.504883,386.441711 
		C1060.954956,356.464966 1052.118896,327.922760 1034.572510,302.772369 
		C1015.643005,275.639313 990.008423,259.004547 957.242737,253.874222 
		C930.395996,249.670654 903.888672,252.191879 877.633179,258.677643 
		C855.438171,264.160339 835.441956,273.664276 819.124329,290.052155 
		C817.122925,292.062195 815.278625,294.228668 812.685974,297.060516 
		C848.039062,293.828400 877.879517,304.425140 904.644592,324.854370 
		C928.464417,343.035492 945.227905,366.739349 957.847107,393.588562 
		C961.501038,401.362823 964.713806,409.344421 968.268494,417.553711 
		C993.709839,409.614532 1019.012512,401.718628 1045.060913,393.521576 
	M806.905212,451.545776 
		C781.423279,440.822327 751.563965,446.739838 733.870178,464.872284 
		C710.984070,488.325775 710.073486,520.411682 721.750793,542.256470 
		C736.779053,570.369812 760.913086,585.812561 792.116333,590.468994 
		C818.472778,594.402100 841.953003,579.503906 850.154724,554.062256 
		C854.983948,539.082153 853.509583,524.096558 849.856873,509.249054 
		C843.729614,484.343048 831.576111,463.703247 806.905212,451.545776 
	M1143.813965,433.274017 
		C1137.996826,441.378662 1132.139648,449.455170 1126.400513,457.614563 
		C1125.400269,459.036743 1125.043701,460.897614 1124.131836,462.399200 
		C1122.588867,464.940002 1121.008179,467.495209 1119.117554,469.773956 
		C1117.903198,471.237579 1115.781860,471.964630 1114.619873,473.453369 
		C1104.898682,485.908783 1095.253662,498.424988 1085.747925,511.045105 
		C1084.698730,512.438110 1083.961914,514.738159 1084.286743,516.378479 
		C1085.733276,523.681641 1087.618652,530.897949 1089.565063,539.067139 
		C1094.849609,538.188538 1100.226440,537.941650 1105.177856,536.361511 
		C1129.134277,528.716370 1146.529907,512.679382 1159.152222,491.559357 
		C1172.621704,469.021729 1174.507080,445.595154 1161.452759,421.935974 
		C1160.088867,419.463898 1158.636841,417.040436 1156.994385,414.193726 
		C1152.321411,420.916687 1148.244385,426.782379 1143.813965,433.274017 
	M955.406616,437.975342 
		C948.288391,440.164978 941.170227,442.354645 933.523926,444.706726 
		C935.516846,452.426605 937.405029,459.740906 939.507874,467.886627 
		C952.132263,466.051056 964.304077,464.541107 976.380493,462.473907 
		C1005.681519,457.458191 1033.724243,448.087677 1061.283936,437.193207 
		C1070.127808,433.697174 1068.787598,436.117950 1068.872803,425.922089 
		C1068.935913,418.358643 1068.885132,410.794250 1068.885132,402.434753 
		C1030.653320,414.428986 993.420410,426.109833 955.406616,437.975342 
	M1124.154053,428.928223 
		C1124.263184,430.081360 1124.372192,431.234497 1124.568970,433.315887 
		C1168.624390,371.778107 1206.734497,307.914825 1240.517944,240.981079 
		C1237.583984,239.191238 1234.985352,237.606079 1232.059204,235.821030 
		C1198.799927,299.623260 1159.974854,359.178497 1112.829346,413.963806 
		C1122.114136,413.747070 1124.135864,415.753967 1124.153687,424.072632 
		C1124.156616,425.405884 1124.154053,426.739105 1124.154053,428.928223 
	M700.461487,380.111206 
		C712.089478,401.189636 723.717468,422.268066 735.451965,443.539612 
		C738.351440,441.852570 741.182251,440.205536 744.520447,438.263245 
		C720.216553,392.028290 695.363159,346.406158 663.708923,304.518158 
		C660.722961,306.358612 658.133667,307.954498 656.068054,309.227661 
		C670.962158,332.989990 685.530579,356.232635 700.461487,380.111206 
	M1240.617065,218.842407 
		C1237.355713,226.198959 1245.937622,223.547546 1246.567261,226.352798 
		C1252.762329,217.710297 1259.271240,209.357224 1264.976318,200.487091 
		C1272.130737,189.363495 1278.911621,177.971420 1285.235962,166.358704 
		C1287.192505,162.766129 1287.467407,158.106857 1287.864380,153.875153 
		C1288.085327,151.520981 1287.331543,148.984360 1283.794800,148.790131 
		C1274.371826,148.272659 1267.073486,151.746277 1261.705444,159.550659 
		C1254.929199,169.402512 1250.901123,180.382462 1247.930786,191.844971 
		C1245.652832,200.635788 1243.269775,209.399338 1240.617065,218.842407 
	M948.588867,482.121246 
		C947.145142,482.300598 945.701477,482.479980 943.407227,482.765015 
		C944.573914,487.320679 945.594849,491.441040 946.689331,495.541779 
		C947.667969,499.208252 947.649841,504.517365 950.038452,506.064178 
		C952.710449,507.794434 957.663635,506.496643 961.507019,505.835754 
		C976.387085,503.277222 991.232666,500.509888 1006.051636,497.618225 
		C1007.463928,497.342651 1009.653625,495.701660 1009.697815,494.621582 
		C1010.013611,486.896851 1009.866394,479.153198 1009.866394,472.162903 
		C989.373718,475.528351 969.432373,478.803314 948.588867,482.121246 
	M577.238403,271.299744 
		C588.878479,278.037292 601.787415,280.734100 614.879089,281.783051 
		C627.466125,282.791565 639.793091,283.152252 646.277344,296.893494 
		C648.626404,295.471741 650.949707,294.065521 653.533508,292.501648 
		C637.324707,273.343414 617.787231,260.117554 594.067322,253.527512 
		C584.365906,250.832199 574.494202,250.771927 565.104675,255.429047 
		C567.460815,263.257782 569.699036,266.233063 577.238403,271.299744 
	M1078.119507,453.691833 
		C1078.119507,451.907318 1078.119507,450.122833 1078.119507,448.449158 
		C1077.256470,448.270599 1076.884521,448.063049 1076.622192,448.158020 
		C1060.234253,454.090973 1043.844360,460.019470 1027.502197,466.076141 
		C1026.519287,466.440491 1025.271240,467.830597 1025.248657,468.769897 
		C1025.065430,476.385864 1025.145752,484.008148 1025.145752,492.021118 
		C1026.779419,491.760010 1027.942749,491.758118 1028.969116,491.382324 
		C1043.153931,486.188446 1057.260254,480.771484 1071.521118,475.797607 
		C1076.988892,473.890625 1078.958862,470.735657 1078.204468,465.112122 
		C1077.744141,461.680267 1078.119507,458.136322 1078.119507,453.691833 
	M1289.007324,825.519653 
		C1290.782959,821.900452 1292.558594,818.281311 1294.334351,814.662170 
		C1283.898071,819.812439 1274.328857,825.475586 1264.756226,831.132996 
		C1255.322632,836.708191 1254.089478,836.540222 1246.544678,828.754150 
		C1246.375122,828.579163 1245.933472,828.667786 1245.374146,828.606689 
		C1242.552979,832.520874 1239.666992,836.524963 1237.623413,839.360352 
		C1243.363892,845.688354 1248.850586,851.468201 1254.003784,857.531494 
		C1256.546509,860.523132 1258.496704,860.231018 1261.494507,858.165405 
		C1273.458984,849.921509 1281.589600,838.508484 1289.007324,825.519653 
	M846.014587,929.602661 
		C851.965332,923.568481 857.916077,917.534302 864.144165,911.218872 
		C862.334045,909.723999 860.483765,908.195923 858.482544,906.543213 
		C857.691528,907.516174 857.056519,908.086121 856.680176,908.793701 
		C853.706238,914.384460 849.253479,915.612427 843.242371,914.212341 
		C834.997253,912.291931 826.614929,910.958923 818.287537,909.394348 
		C810.042542,907.845215 801.792786,906.321228 793.315552,904.743408 
		C793.531799,905.601868 793.512207,905.994385 793.698792,906.185303 
		C794.627747,907.135498 795.572876,908.077148 796.580811,908.941833 
		C808.878357,919.491760 823.179016,926.378723 838.245117,931.952759 
		C841.385925,933.114868 843.614441,932.854004 846.014587,929.602661 
	M1108.045654,395.591553 
		C1109.977905,393.226349 1111.910156,390.861176 1113.842407,388.495972 
		C1113.678467,387.903748 1113.514648,387.311523 1113.350830,386.719299 
		C1104.689453,387.447327 1096.017700,388.079254 1087.379639,389.020020 
		C1086.248413,389.143280 1084.409546,390.831360 1084.387451,391.827789 
		C1084.163940,401.861633 1084.251221,411.902374 1084.251221,423.366730 
		C1092.616699,413.629913 1100.120361,404.896149 1108.045654,395.591553 
	M1093.835327,462.931396 
		C1094.486572,463.478638 1095.415283,464.631195 1095.746338,464.479523 
		C1099.050293,462.965607 1102.512451,461.581207 1105.390381,459.436249 
		C1107.050537,458.198975 1108.551514,455.689423 1108.684326,453.658356 
		C1109.102051,447.272217 1108.838257,440.841522 1108.838257,433.742920 
		C1104.391602,435.754486 1100.398682,437.291779 1096.711304,439.371002 
		C1095.375122,440.124420 1094.035156,442.136871 1093.959351,443.638519 
		C1093.650513,449.758789 1093.830811,455.903748 1093.835327,462.931396 
	z"/>
	<path fill="#3399FE" opacity="1.000000" stroke="none" 
		d="
	M1063.437256,495.461548 
		C1070.063599,492.772705 1076.351562,490.271759 1082.639526,487.770782 
		C1082.892700,488.061462 1083.145874,488.352112 1083.399048,488.642792 
		C1079.396851,493.745331 1075.598511,499.026855 1071.328003,503.893982 
		C1067.887573,507.814911 1067.324951,511.765076 1068.494507,516.759094 
		C1077.437500,554.947937 1086.167847,593.186584 1095.199219,632.430176 
		C1033.081665,627.175537 979.288513,647.719299 930.371826,684.145752 
		C898.868530,655.287048 867.466797,626.521301 835.621216,597.348999 
		C861.428345,579.324829 870.936951,554.166626 868.254883,523.185303 
		C873.764038,523.556274 878.997437,523.979858 884.238708,524.249756 
		C914.915283,525.829224 945.412170,524.186829 975.790710,519.563293 
		C1005.845703,514.989014 1034.833984,506.678833 1063.437256,495.461548 
	z"/>
	<path fill="#FEFEFE" opacity="1.000000" stroke="none" 
		d="
	M1103.843262,669.118774 
		C1104.434448,671.798157 1105.235107,674.047668 1105.394531,676.341736 
		C1106.333862,689.866211 1114.281250,698.429932 1124.297607,706.753967 
		C1163.276001,739.147400 1199.417114,774.545349 1232.886719,812.635742 
		C1233.747681,813.615723 1234.509766,814.682617 1235.497314,815.936584 
		C1232.142090,820.602356 1228.858032,825.169128 1225.253662,830.181274 
		C1219.154297,824.939270 1213.188232,819.748901 1207.155518,814.637329 
		C1164.349731,778.368591 1118.337036,746.964294 1067.633789,722.671387 
		C1060.480591,719.244019 1058.674438,719.531738 1053.193237,724.950989 
		C996.333313,781.169067 939.457520,837.371216 882.573669,893.565186 
		C880.329346,895.782349 877.961121,897.874146 875.454590,900.206848 
		C872.742798,897.963196 870.080322,895.760376 867.121765,893.312622 
		C873.214661,884.039185 879.206482,874.889099 885.228638,865.758972 
		C914.160156,821.896240 943.102417,778.040588 972.033813,734.177673 
		C975.650330,728.694580 975.191895,725.369080 970.197693,720.758850 
		C961.046509,712.311218 951.878967,703.881287 941.827881,694.623962 
		C953.154785,687.704041 963.762817,680.621948 974.914246,674.535645 
		C998.263489,661.791809 1023.047668,652.537781 1049.534912,649.511292 
		C1064.837769,647.762817 1080.431763,648.484558 1095.896851,648.379272 
		C1097.175781,648.370605 1099.206421,650.329346 1099.626465,651.747681 
		C1101.277344,657.320435 1102.423218,663.042786 1103.843262,669.118774 
	z"/>
	<path fill="#3399FE" opacity="1.000000" stroke="none" 
		d="
	M899.807312,469.557404 
		C897.193298,472.626312 896.256287,475.719177 898.014343,479.073608 
		C899.757874,482.400299 902.757935,483.324738 906.412048,483.211151 
		C912.237183,483.030029 918.075256,483.274872 923.901550,483.112396 
		C926.520752,483.039337 927.700439,483.839111 928.301514,486.522308 
		C929.887390,493.601013 931.836304,500.598297 933.845520,508.426300 
		C928.097046,508.691071 923.005066,509.193756 917.922852,509.109467 
		C902.615051,508.855682 887.312622,508.261108 872.004639,508.047821 
		C867.333862,507.982727 865.188721,506.479095 863.937622,501.595612 
		C857.269226,475.565399 843.568726,454.155457 819.695435,440.871338 
		C810.570129,435.793610 800.050842,433.220947 789.177795,429.135040 
		C786.815918,411.231049 785.408508,391.749969 786.697388,372.056396 
		C787.905396,353.600861 791.561707,335.848480 799.197571,318.950623 
		C800.553345,315.950470 802.432678,314.535217 805.797363,313.884399 
		C840.303101,307.210449 870.283569,317.385345 897.119141,338.552032 
		C924.403198,360.072418 940.818054,389.122040 952.826477,421.052277 
		C952.926331,421.317810 952.776245,421.677368 952.699951,422.398865 
		C943.512268,425.237976 934.191895,428.155640 924.847473,430.993988 
		C917.026489,433.369598 915.450684,436.018250 917.423828,443.793701 
		C919.380615,451.504852 921.340820,459.215149 923.338562,467.079376 
		C915.333984,467.832214 907.712158,468.549072 899.807312,469.557404 
	z"/>
	<path fill="#FEFEFE" opacity="1.000000" stroke="none" 
		d="
	M1044.687988,393.672180 
		C1019.012512,401.718628 993.709839,409.614532 968.268494,417.553711 
		C964.713806,409.344421 961.501038,401.362823 957.847107,393.588562 
		C945.227905,366.739349 928.464417,343.035492 904.644592,324.854370 
		C877.879517,304.425140 848.039062,293.828400 812.685974,297.060516 
		C815.278625,294.228668 817.122925,292.062195 819.124329,290.052155 
		C835.441956,273.664276 855.438171,264.160339 877.633179,258.677643 
		C903.888672,252.191879 930.395996,249.670654 957.242737,253.874222 
		C990.008423,259.004547 1015.643005,275.639313 1034.572510,302.772369 
		C1052.118896,327.922760 1060.954956,356.464966 1067.504883,386.441711 
		C1059.821045,388.865570 1052.440918,391.193573 1044.687988,393.672180 
	z"/>
	<path fill="#FEFEFE" opacity="1.000000" stroke="none" 
		d="
	M807.251709,451.702576 
		C831.576111,463.703247 843.729614,484.343048 849.856873,509.249054 
		C853.509583,524.096558 854.983948,539.082153 850.154724,554.062256 
		C841.953003,579.503906 818.472778,594.402100 792.116333,590.468994 
		C760.913086,585.812561 736.779053,570.369812 721.750793,542.256470 
		C710.073486,520.411682 710.984070,488.325775 733.870178,464.872284 
		C751.563965,446.739838 781.423279,440.822327 807.251709,451.702576 
	z"/>
	<path fill="#FEFEFE" opacity="1.000000" stroke="none" 
		d="
	M1143.990723,432.961060 
		C1148.244385,426.782379 1152.321411,420.916687 1156.994385,414.193726 
		C1158.636841,417.040436 1160.088867,419.463898 1161.452759,421.935974 
		C1174.507080,445.595154 1172.621704,469.021729 1159.152222,491.559357 
		C1146.529907,512.679382 1129.134277,528.716370 1105.177856,536.361511 
		C1100.226440,537.941650 1094.849609,538.188538 1089.565063,539.067139 
		C1087.618652,530.897949 1085.733276,523.681641 1084.286743,516.378479 
		C1083.961914,514.738159 1084.698730,512.438110 1085.747925,511.045105 
		C1095.253662,498.424988 1104.898682,485.908783 1114.619873,473.453369 
		C1115.781860,471.964630 1117.903198,471.237579 1119.117554,469.773956 
		C1121.008179,467.495209 1122.588867,464.940002 1124.131836,462.399200 
		C1125.043701,460.897614 1125.400269,459.036743 1126.400513,457.614563 
		C1132.139648,449.455170 1137.996826,441.378662 1143.990723,432.961060 
	z"/>
	<path fill="#656565" opacity="1.000000" stroke="none" 
		d="
	M955.797058,437.882996 
		C993.420410,426.109833 1030.653320,414.428986 1068.885132,402.434753 
		C1068.885132,410.794250 1068.935913,418.358643 1068.872803,425.922089 
		C1068.787598,436.117950 1070.127808,433.697174 1061.283936,437.193207 
		C1033.724243,448.087677 1005.681519,457.458191 976.380493,462.473907 
		C964.304077,464.541107 952.132263,466.051056 939.507874,467.886627 
		C937.405029,459.740906 935.516846,452.426605 933.523926,444.706726 
		C941.170227,442.354645 948.288391,440.164978 955.797058,437.882996 
	z"/>
	<path fill="#3297FB" opacity="1.000000" stroke="none" 
		d="
	M1124.154053,428.500305 
		C1124.154053,426.739105 1124.156616,425.405884 1124.153687,424.072632 
		C1124.135864,415.753967 1122.114136,413.747070 1112.829346,413.963806 
		C1159.974854,359.178497 1198.799927,299.623260 1232.059204,235.821030 
		C1234.985352,237.606079 1237.583984,239.191238 1240.517944,240.981079 
		C1206.734497,307.914825 1168.624390,371.778107 1124.568970,433.315887 
		C1124.372192,431.234497 1124.263184,430.081360 1124.154053,428.500305 
	z"/>
	<path fill="#3297FB" opacity="1.000000" stroke="none" 
		d="
	M700.280273,379.793274 
		C685.530579,356.232635 670.962158,332.989990 656.068054,309.227661 
		C658.133667,307.954498 660.722961,306.358612 663.708923,304.518158 
		C695.363159,346.406158 720.216553,392.028290 744.520447,438.263245 
		C741.182251,440.205536 738.351440,441.852570 735.451965,443.539612 
		C723.717468,422.268066 712.089478,401.189636 700.280273,379.793274 
	z"/>
	<path fill="#FEFEFE" opacity="1.000000" stroke="none" 
		d="
	M1240.775269,218.508698 
		C1243.269775,209.399338 1245.652832,200.635788 1247.930786,191.844971 
		C1250.901123,180.382462 1254.929199,169.402512 1261.705444,159.550659 
		C1267.073486,151.746277 1274.371826,148.272659 1283.794800,148.790131 
		C1287.331543,148.984360 1288.085327,151.520981 1287.864380,153.875153 
		C1287.467407,158.106857 1287.192505,162.766129 1285.235962,166.358704 
		C1278.911621,177.971420 1272.130737,189.363495 1264.976318,200.487091 
		C1259.271240,209.357224 1252.762329,217.710297 1246.567261,226.352798 
		C1245.937622,223.547546 1237.355713,226.198959 1240.775269,218.508698 
	z"/>
	<path fill="#656565" opacity="1.000000" stroke="none" 
		d="
	M949.039917,482.099731 
		C969.432373,478.803314 989.373718,475.528351 1009.866394,472.162903 
		C1009.866394,479.153198 1010.013611,486.896851 1009.697815,494.621582 
		C1009.653625,495.701660 1007.463928,497.342651 1006.051636,497.618225 
		C991.232666,500.509888 976.387085,503.277222 961.507019,505.835754 
		C957.663635,506.496643 952.710449,507.794434 950.038452,506.064178 
		C947.649841,504.517365 947.667969,499.208252 946.689331,495.541779 
		C945.594849,491.441040 944.573914,487.320679 943.407227,482.765015 
		C945.701477,482.479980 947.145142,482.300598 949.039917,482.099731 
	z"/>
	<path fill="#FEFEFE" opacity="1.000000" stroke="none" 
		d="
	M576.917358,271.129822 
		C569.699036,266.233063 567.460815,263.257782 565.104675,255.429047 
		C574.494202,250.771927 584.365906,250.832199 594.067322,253.527512 
		C617.787231,260.117554 637.324707,273.343414 653.533508,292.501648 
		C650.949707,294.065521 648.626404,295.471741 646.277344,296.893494 
		C639.793091,283.152252 627.466125,282.791565 614.879089,281.783051 
		C601.787415,280.734100 588.878479,278.037292 576.917358,271.129822 
	z"/>
	<path fill="#656565" opacity="1.000000" stroke="none" 
		d="
	M1078.119507,454.167267 
		C1078.119507,458.136322 1077.744141,461.680267 1078.204468,465.112122 
		C1078.958862,470.735657 1076.988892,473.890625 1071.521118,475.797607 
		C1057.260254,480.771484 1043.153931,486.188446 1028.969116,491.382324 
		C1027.942749,491.758118 1026.779419,491.760010 1025.145752,492.021118 
		C1025.145752,484.008148 1025.065430,476.385864 1025.248657,468.769897 
		C1025.271240,467.830597 1026.519287,466.440491 1027.502197,466.076141 
		C1043.844360,460.019470 1060.234253,454.090973 1076.622192,448.158020 
		C1076.884521,448.063049 1077.256470,448.270599 1078.119507,448.449158 
		C1078.119507,450.122833 1078.119507,451.907318 1078.119507,454.167267 
	z"/>
	<path fill="#3264FB" opacity="1.000000" stroke="none" 
		d="
	M1288.856934,825.855042 
		C1281.589600,838.508484 1273.458984,849.921509 1261.494507,858.165405 
		C1258.496704,860.231018 1256.546509,860.523132 1254.003784,857.531494 
		C1248.850586,851.468201 1243.363892,845.688354 1237.623413,839.360352 
		C1239.666992,836.524963 1242.552979,832.520874 1245.374146,828.606689 
		C1245.933472,828.667786 1246.375122,828.579163 1246.544678,828.754150 
		C1254.089478,836.540222 1255.322632,836.708191 1264.756226,831.132996 
		C1274.328857,825.475586 1283.898071,819.812439 1294.334351,814.662170 
		C1292.558594,818.281311 1290.782959,821.900452 1288.856934,825.855042 
	z"/>
	<path fill="#3264FB" opacity="1.000000" stroke="none" 
		d="
	M845.752502,929.854309 
		C843.614441,932.854004 841.385925,933.114868 838.245117,931.952759 
		C823.179016,926.378723 808.878357,919.491760 796.580811,908.941833 
		C795.572876,908.077148 794.627747,907.135498 793.698792,906.185303 
		C793.512207,905.994385 793.531799,905.601868 793.315552,904.743408 
		C801.792786,906.321228 810.042542,907.845215 818.287537,909.394348 
		C826.614929,910.958923 834.997253,912.291931 843.242371,914.212341 
		C849.253479,915.612427 853.706238,914.384460 856.680176,908.793701 
		C857.056519,908.086121 857.691528,907.516174 858.482544,906.543213 
		C860.483765,908.195923 862.334045,909.723999 864.144165,911.218872 
		C857.916077,917.534302 851.965332,923.568481 845.752502,929.854309 
	z"/>
	<path fill="#FEFEFE" opacity="1.000000" stroke="none" 
		d="
	M1107.834839,395.876953 
		C1100.120361,404.896149 1092.616699,413.629913 1084.251221,423.366730 
		C1084.251221,411.902374 1084.163940,401.861633 1084.387451,391.827789 
		C1084.409546,390.831360 1086.248413,389.143280 1087.379639,389.020020 
		C1096.017700,388.079254 1104.689453,387.447327 1113.350830,386.719299 
		C1113.514648,387.311523 1113.678467,387.903748 1113.842407,388.495972 
		C1111.910156,390.861176 1109.977905,393.226349 1107.834839,395.876953 
	z"/>
	<path fill="#3297FB" opacity="1.000000" stroke="none" 
		d="
	M1093.833008,462.485504 
		C1093.830811,455.903748 1093.650513,449.758789 1093.959351,443.638519 
		C1094.035156,442.136871 1095.375122,440.124420 1096.711304,439.371002 
		C1100.398682,437.291779 1104.391602,435.754486 1108.838257,433.742920 
		C1108.838257,440.841522 1109.102051,447.272217 1108.684326,453.658356 
		C1108.551514,455.689423 1107.050537,458.198975 1105.390381,459.436249 
		C1102.512451,461.581207 1099.050293,462.965607 1095.746338,464.479523 
		C1095.415283,464.631195 1094.486572,463.478638 1093.833008,462.485504 
	z"/>
</svg>